<?xml version="1.0" standalone="no"?>
<!DOCTYPE svg PUBLIC "-//W3C//DTD SVG 20010904//EN"
 "http://www.w3.org/TR/2001/REC-SVG-20010904/DTD/svg10.dtd">
<svg version="1.0" xmlns="http://www.w3.org/2000/svg"
 width="2878.000000pt" height="2878.000000pt" viewBox="0 0 2878.000000 2878.000000"
 preserveAspectRatio="xMidYMid meet">
<metadata>
Created by potrace 1.11, written by Peter Selinger 2001-2013
</metadata>
<g transform="translate(0.000000,2878.000000) scale(0.100000,-0.100000)"
fill="#000000" stroke="none">
<path d="M0 14385 l0 -10155 10204 0 10204 0 4 40 c2 22 0 47 -5 55 -5 10 -4
15 5 15 9 0 9 3 -2 10 -8 5 -10 10 -4 10 8 0 9 11 4 35 -5 24 -4 35 4 35 7 0
6 4 -3 9 -11 7 -11 9 0 14 12 4 11 7 -1 16 -13 10 -13 11 0 11 13 0 13 1 0 10
-8 5 -10 10 -4 10 10 0 10 70 -1 98 -2 6 0 12 5 12 5 0 5 13 0 30 -6 21 -5 30
3 30 8 0 7 3 -2 9 -11 7 -11 9 0 14 12 4 11 7 -1 16 -13 10 -13 11 0 11 13 0
13 1 0 10 -8 5 -10 10 -4 10 10 0 10 70 -1 98 -2 6 0 12 5 12 5 0 5 13 0 30
-6 21 -5 30 3 30 8 0 7 3 -2 9 -11 7 -11 9 0 14 12 4 11 7 -1 16 -13 10 -13
11 0 11 13 0 13 1 0 10 -8 5 -10 10 -4 10 10 0 10 70 -1 98 -2 6 0 12 5 12 5
0 5 13 0 30 -6 21 -5 30 3 30 8 0 7 3 -2 9 -11 7 -11 9 0 14 12 4 11 7 -1 16
-13 10 -13 11 0 11 13 0 13 1 0 10 -8 5 -10 10 -4 10 10 0 10 70 -1 98 -2 6 0
12 5 12 5 0 5 13 0 30 -6 21 -5 30 3 30 8 0 7 3 -2 9 -11 7 -11 9 0 14 12 4
11 7 -1 16 -13 10 -13 11 0 11 13 0 13 1 0 10 -8 5 -10 10 -4 10 10 0 10 70
-1 98 -2 6 0 12 5 12 5 0 5 13 0 30 -6 21 -5 30 3 30 8 0 7 3 -2 9 -11 7 -11
9 0 14 12 4 11 7 -1 16 -13 10 -13 11 0 11 13 0 13 1 0 10 -8 5 -10 10 -4 10
10 0 10 70 -1 98 -2 6 0 12 5 12 5 0 5 13 0 30 -6 21 -5 30 3 30 8 0 7 3 -2 9
-11 7 -11 9 0 14 12 4 11 7 -1 16 -13 10 -13 11 0 11 13 0 13 1 0 10 -8 5 -10
10 -4 10 10 0 10 70 -1 98 -2 6 0 12 5 12 5 0 5 13 0 30 -6 21 -5 30 3 30 8 0
7 3 -2 9 -11 7 -11 9 0 14 12 4 11 7 -1 16 -13 10 -13 11 0 11 13 0 13 1 0 10
-8 5 -10 10 -4 10 10 0 10 70 -1 97 -2 7 0 13 5 13 5 0 5 13 0 30 -6 21 -5 30
3 30 8 0 7 3 -2 9 -11 7 -11 9 0 14 12 4 11 7 -1 16 -13 10 -13 11 0 11 13 0
13 1 0 10 -8 5 -10 10 -4 10 10 0 10 70 -1 97 -2 7 0 13 5 13 5 0 5 13 0 30
-6 21 -5 30 3 30 8 0 7 3 -2 9 -11 7 -11 9 0 14 12 4 11 7 -1 16 -13 10 -13
11 0 11 13 0 13 1 0 10 -8 5 -10 10 -4 10 10 0 10 70 -1 98 -2 6 0 12 5 12 5
0 5 13 0 30 -6 21 -5 30 3 30 8 0 7 3 -2 9 -11 7 -11 9 0 14 12 4 11 7 -1 16
-13 10 -13 11 0 11 13 0 13 1 0 10 -8 5 -10 10 -4 10 10 0 10 70 -1 97 -2 7 0
13 5 13 5 0 5 13 0 30 -6 21 -5 30 3 30 8 0 7 3 -2 9 -11 7 -11 9 0 14 12 4
11 7 -1 16 -13 10 -13 11 0 11 13 0 13 1 0 10 -8 5 -10 10 -4 10 10 0 10 70
-1 97 -2 7 0 13 5 13 5 0 5 13 0 30 -6 21 -5 30 3 30 8 0 7 3 -2 9 -11 7 -11
9 0 14 12 4 11 7 -1 16 -13 10 -13 11 0 11 13 0 13 1 0 10 -8 5 -10 10 -4 10
10 0 10 70 -1 98 -2 6 0 12 5 12 5 0 5 13 0 30 -6 21 -5 30 3 30 8 0 7 3 -2 9
-11 7 -11 9 0 14 12 4 11 7 -1 16 -13 10 -13 11 0 11 13 0 13 1 0 10 -8 5 -10
10 -4 10 10 0 10 70 -1 98 -2 6 0 12 5 12 5 0 5 13 0 30 -6 21 -5 30 3 30 8 0
7 3 -2 9 -11 7 -11 9 0 14 12 4 11 7 -1 16 -13 10 -13 11 0 11 13 0 13 1 0 10
-8 5 -10 10 -4 10 10 0 10 70 -1 98 -2 6 0 12 5 12 5 0 5 13 0 30 -6 21 -5 30
3 30 8 0 7 3 -2 9 -11 7 -11 9 0 14 12 4 11 7 -1 16 -13 10 -13 11 0 11 13 0
13 1 0 10 -8 5 -10 10 -4 10 10 0 10 70 -1 98 -2 6 0 12 5 12 5 0 5 13 0 30
-6 21 -5 30 3 30 7 0 6 4 -3 10 -8 5 -10 10 -4 10 10 0 10 57 0 103 -2 9 1 17
7 17 7 0 5 5 -3 10 -8 5 -10 10 -5 10 10 0 10 100 0 128 -2 6 1 12 8 12 8 0 6
4 -3 10 -8 5 -10 10 -5 10 10 0 10 100 0 127 -2 7 1 13 8 13 8 0 6 4 -3 10 -8
5 -10 10 -5 10 10 0 10 100 0 128 -2 6 1 12 8 12 8 0 6 4 -3 10 -8 5 -10 10
-5 10 10 0 10 100 0 128 -2 6 1 12 8 12 8 0 6 4 -3 10 -8 5 -10 10 -5 10 10 0
10 100 0 127 -2 7 1 13 8 13 8 0 6 4 -3 10 -8 5 -10 10 -5 10 10 0 10 100 0
128 -2 6 1 12 8 12 8 0 6 4 -3 10 -8 5 -10 10 -5 10 10 0 10 100 0 128 -2 6 1
12 8 12 8 0 6 4 -3 10 -8 5 -10 10 -5 10 10 0 10 100 0 127 -2 7 1 13 8 13 8
0 6 4 -3 10 -8 5 -10 10 -5 10 10 0 10 100 0 128 -2 6 1 12 8 12 8 0 6 4 -3
10 -8 5 -10 10 -5 10 10 0 10 100 0 128 -2 6 1 12 8 12 8 0 6 4 -3 10 -8 5
-10 10 -5 10 10 0 10 100 0 128 -2 6 1 12 8 12 8 0 6 4 -3 10 -8 5 -10 10 -5
10 10 0 10 100 0 128 -2 6 1 12 8 12 8 0 6 4 -3 10 -8 5 -10 10 -5 10 10 0 10
100 0 128 -2 6 1 12 8 12 8 0 6 4 -3 10 -8 5 -10 10 -5 10 10 0 10 100 0 128
-2 6 1 12 8 12 8 0 6 4 -3 10 -8 5 -10 10 -5 10 10 0 10 100 0 128 -2 6 1 12
8 12 8 0 6 4 -3 10 -8 5 -10 10 -5 10 10 0 10 100 0 128 -2 6 1 12 8 12 8 0 6
4 -3 10 -8 5 -10 10 -5 10 10 0 10 100 0 128 -2 6 1 12 8 12 8 0 6 4 -3 10 -8
5 -10 10 -5 10 10 0 10 100 0 128 -2 6 1 12 8 12 8 0 6 4 -3 10 -8 5 -10 10
-5 10 10 0 10 100 0 128 -2 6 1 12 8 12 8 0 6 4 -3 10 -8 5 -10 10 -5 10 10 0
10 100 0 128 -2 6 1 12 8 12 8 0 6 4 -3 10 -8 5 -10 10 -5 10 10 0 10 100 0
128 -2 6 1 12 8 12 8 0 6 4 -3 10 -8 5 -10 10 -5 10 10 0 10 100 0 128 -2 6 1
12 8 12 8 0 6 4 -3 10 -8 5 -10 10 -5 10 10 0 10 100 0 128 -2 6 1 12 8 12 8
0 6 4 -3 10 -8 5 -10 10 -5 10 10 0 10 100 0 128 -2 6 1 12 8 12 8 0 6 4 -3
10 -8 5 -10 10 -4 10 14 0 13 32 -1 42 -6 5 -5 8 3 8 10 0 10 5 2 20 -6 11 -7
21 -3 21 4 1 302 3 660 4 359 0 655 4 658 7 5 4 9 684 5 773 0 7 -597 10
-1790 10 l-1790 0 0 -50 c-1 -113 -1 -682 -1 -710 l1 -30 670 1 c374 0 670 -4
670 -8 0 -5 6 -6 12 -2 10 6 10 4 0 -8 -9 -11 -10 -18 -2 -23 6 -3 7 -11 4
-17 -11 -18 -11 -78 0 -78 6 0 5 -4 -3 -9 -9 -6 -10 -10 -2 -16 9 -5 9 -10 1
-20 -8 -10 -8 -15 0 -20 8 -5 8 -10 0 -20 -8 -10 -8 -15 0 -20 8 -5 8 -10 0
-20 -8 -10 -8 -15 0 -20 8 -5 8 -10 0 -20 -8 -10 -8 -15 0 -20 8 -5 8 -10 0
-20 -8 -10 -8 -15 0 -20 8 -5 8 -10 0 -20 -8 -10 -8 -15 0 -20 8 -5 8 -10 0
-20 -8 -10 -8 -15 0 -20 8 -5 8 -10 0 -20 -8 -10 -8 -15 0 -20 8 -5 8 -10 0
-20 -8 -9 -8 -15 0 -20 6 -4 7 -12 1 -23 -5 -9 -5 -26 0 -40 5 -14 5 -21 0
-17 -6 3 -9 -4 -8 -15 1 -11 5 -20 10 -20 4 0 5 -6 0 -12 -10 -17 -11 -29 -1
-56 5 -14 4 -21 -1 -17 -6 3 -9 -4 -8 -15 1 -11 5 -20 10 -20 4 0 5 -6 0 -12
-10 -17 -11 -29 -1 -56 5 -14 4 -21 -1 -17 -6 3 -9 -4 -8 -15 1 -11 5 -20 10
-20 4 0 5 -6 0 -12 -10 -17 -11 -29 -1 -56 5 -14 4 -21 -1 -17 -6 3 -9 -4 -8
-15 1 -11 5 -20 10 -20 4 0 5 -6 0 -12 -10 -17 -11 -29 -1 -56 5 -14 4 -21 -1
-17 -6 3 -9 -4 -8 -15 1 -11 5 -20 10 -20 6 0 6 -5 0 -12 -11 -15 -11 -58 0
-75 4 -6 3 -15 -3 -18 -8 -5 -8 -11 0 -20 8 -10 8 -15 0 -20 -8 -5 -8 -10 0
-20 8 -10 8 -15 0 -20 -8 -5 -8 -10 0 -20 8 -10 8 -15 0 -20 -8 -5 -8 -10 0
-20 8 -10 8 -15 0 -20 -8 -5 -8 -10 0 -20 8 -10 8 -15 0 -20 -8 -5 -8 -10 0
-20 8 -10 8 -15 0 -20 -8 -5 -8 -10 0 -20 8 -10 8 -15 0 -20 -8 -5 -8 -10 0
-20 8 -10 8 -15 0 -20 -8 -5 -8 -10 0 -20 8 -10 8 -15 0 -20 -8 -5 -8 -10 0
-20 8 -10 8 -15 0 -20 -8 -5 -8 -10 0 -20 8 -10 8 -15 0 -20 -8 -5 -8 -10 0
-20 8 -10 8 -15 0 -20 -8 -5 -8 -10 0 -20 8 -10 8 -15 0 -20 -8 -5 -8 -10 0
-20 8 -10 8 -15 0 -20 -7 -5 -8 -11 -1 -19 6 -7 6 -18 1 -26 -4 -7 -4 -24 1
-37 5 -15 5 -22 0 -18 -6 3 -9 -4 -8 -15 1 -11 5 -20 10 -20 4 0 5 -6 0 -12
-10 -17 -11 -29 -1 -56 5 -14 4 -21 -1 -17 -6 3 -9 -4 -8 -15 1 -11 5 -20 10
-20 4 0 5 -6 0 -12 -10 -17 -11 -29 -1 -56 5 -14 4 -21 -1 -17 -6 3 -9 -4 -8
-15 1 -11 5 -20 10 -20 4 0 5 -6 0 -12 -10 -17 -11 -29 -1 -56 5 -14 4 -21 -1
-17 -6 3 -9 -4 -8 -15 1 -11 5 -20 10 -20 4 0 5 -6 0 -12 -10 -17 -11 -29 -1
-56 5 -14 4 -21 -1 -17 -6 3 -9 -4 -8 -15 1 -11 5 -20 10 -20 6 0 6 -5 0 -13
-11 -14 -11 -57 0 -74 4 -6 3 -15 -3 -18 -8 -5 -8 -11 0 -20 8 -10 8 -15 0
-20 -8 -5 -8 -10 0 -20 8 -10 8 -15 0 -20 -8 -5 -8 -10 0 -20 8 -10 8 -15 0
-20 -8 -5 -8 -10 0 -20 8 -10 8 -15 0 -20 -8 -5 -8 -10 0 -20 8 -10 8 -15 0
-20 -8 -5 -8 -10 0 -20 8 -10 8 -15 0 -20 -8 -5 -8 -10 0 -20 8 -10 8 -15 0
-20 -8 -5 -8 -10 0 -20 8 -10 8 -15 0 -20 -8 -5 -8 -10 0 -20 8 -10 8 -15 0
-20 -8 -5 -8 -10 0 -20 8 -10 8 -15 0 -20 -8 -5 -8 -10 0 -20 8 -10 8 -15 0
-20 -8 -5 -8 -10 0 -20 8 -10 8 -15 0 -20 -8 -5 -8 -10 0 -20 8 -10 8 -15 0
-20 -8 -5 -8 -10 0 -20 8 -10 8 -15 0 -20 -7 -5 -8 -11 -1 -19 6 -7 6 -18 1
-26 -4 -7 -4 -24 1 -37 5 -15 5 -22 0 -18 -6 3 -9 -4 -8 -15 1 -11 5 -20 10
-20 5 0 5 -6 -1 -12 -12 -15 -12 -25 -1 -56 6 -14 5 -21 0 -17 -6 3 -9 -4 -8
-15 1 -11 5 -20 10 -20 5 0 5 -6 -1 -12 -12 -15 -12 -25 -1 -56 6 -14 5 -21 0
-17 -6 3 -9 -4 -8 -15 1 -11 5 -20 10 -20 5 0 5 -6 -1 -13 -15 -17 -15 -19 -3
-50 6 -16 7 -26 2 -22 -6 3 -9 -4 -8 -15 1 -11 5 -20 10 -20 5 0 5 -6 -1 -12
-12 -15 -12 -25 -1 -56 6 -14 5 -21 0 -17 -6 3 -9 -4 -8 -15 1 -11 5 -20 10
-20 6 0 6 -5 0 -13 -11 -14 -11 -57 0 -74 4 -6 3 -15 -3 -18 -8 -5 -8 -11 0
-20 8 -10 8 -15 0 -20 -8 -5 -8 -10 0 -20 8 -10 8 -15 0 -20 -8 -5 -8 -10 0
-20 8 -10 8 -15 0 -20 -8 -5 -8 -10 0 -20 8 -10 8 -15 0 -20 -8 -5 -8 -10 0
-20 8 -10 8 -15 0 -20 -8 -5 -8 -10 0 -20 8 -10 8 -15 0 -20 -7 -5 -8 -11 -1
-19 6 -7 6 -18 1 -26 -4 -7 -4 -24 1 -37 5 -15 5 -22 0 -18 -6 3 -9 -4 -8 -15
1 -11 5 -20 10 -20 5 0 5 -6 -1 -12 -15 -18 -15 -20 -3 -51 6 -16 7 -26 2 -22
-6 3 -9 -4 -8 -15 1 -11 5 -20 10 -20 5 0 5 -6 -1 -12 -15 -18 -15 -20 -3 -51
6 -16 7 -26 2 -22 -6 3 -9 -4 -8 -15 1 -11 5 -20 10 -20 5 0 5 -6 -1 -12 -15
-18 -15 -20 -3 -51 6 -16 7 -26 2 -22 -6 3 -9 -4 -8 -15 1 -11 5 -20 10 -20 5
0 5 -6 -1 -13 -15 -17 -15 -19 -3 -50 6 -16 7 -26 2 -22 -6 3 -9 -4 -8 -15 1
-11 5 -20 10 -20 6 0 6 -5 0 -12 -11 -15 -11 -58 0 -75 4 -6 3 -15 -3 -18 -8
-5 -8 -11 0 -20 8 -10 8 -15 0 -20 -8 -5 -8 -10 0 -20 8 -10 8 -15 0 -20 -8
-5 -8 -10 0 -20 8 -10 8 -15 0 -20 -8 -5 -8 -10 0 -20 8 -10 8 -15 0 -20 -8
-5 -8 -10 0 -20 8 -10 8 -15 0 -20 -8 -5 -8 -10 0 -20 8 -10 8 -15 0 -20 -7
-5 -8 -11 -1 -19 6 -7 6 -18 1 -26 -4 -7 -4 -24 1 -37 5 -15 5 -22 0 -18 -6 3
-9 -4 -8 -15 1 -11 5 -20 10 -20 5 0 5 -6 -1 -13 -12 -14 -12 -24 -1 -55 6
-14 5 -21 0 -17 -6 3 -9 -4 -8 -15 1 -11 5 -20 10 -20 5 0 3 -7 -4 -17 -8 -9
-13 -17 -12 -17 1 -1 6 -14 12 -29 6 -16 7 -26 2 -22 -6 3 -9 -4 -8 -15 1 -11
5 -20 10 -20 5 0 5 -6 -1 -13 -15 -17 -15 -19 -3 -50 6 -16 7 -26 2 -22 -6 3
-9 -4 -8 -15 1 -11 5 -20 10 -20 5 0 5 -6 -1 -12 -15 -18 -15 -20 -3 -51 6
-16 7 -26 2 -22 -6 3 -9 -4 -8 -15 1 -11 5 -20 10 -20 6 0 6 -5 0 -12 -11 -15
-11 -58 0 -75 4 -6 3 -15 -3 -18 -8 -5 -8 -11 0 -20 8 -10 8 -15 0 -20 -8 -5
-8 -10 0 -20 8 -10 8 -15 0 -20 -8 -5 -8 -10 0 -20 8 -10 8 -15 0 -20 -8 -5
-8 -10 0 -20 8 -10 8 -15 0 -20 -8 -5 -8 -10 0 -20 8 -10 8 -15 0 -20 -8 -5
-8 -10 0 -20 8 -10 8 -15 0 -20 -7 -5 -8 -11 -1 -19 6 -7 6 -18 1 -26 -4 -7
-4 -24 1 -37 5 -15 5 -22 0 -18 -6 3 -9 -4 -8 -15 1 -11 5 -20 10 -20 5 0 5
-6 -1 -13 -12 -14 -12 -24 -1 -55 6 -14 5 -21 0 -17 -6 3 -9 -4 -8 -15 1 -11
5 -20 10 -20 5 0 3 -7 -4 -17 -8 -9 -12 -19 -10 -22 11 -19 20 -51 12 -46 -6
3 -9 -4 -8 -15 1 -11 5 -20 10 -20 5 0 3 -7 -4 -17 -8 -9 -12 -19 -10 -22 11
-19 20 -51 12 -46 -6 3 -9 -4 -8 -15 1 -11 5 -20 10 -20 5 0 3 -7 -4 -17 -8
-9 -13 -17 -12 -17 1 -1 6 -14 12 -29 6 -16 7 -26 2 -22 -6 3 -9 -4 -8 -15 1
-11 5 -20 10 -20 5 0 5 -6 -1 -12 -12 -15 -12 -25 -1 -56 6 -14 5 -21 0 -17
-6 3 -9 -4 -8 -15 1 -11 5 -20 10 -20 5 0 5 -6 -1 -12 -15 -18 -15 -20 -3 -51
6 -16 7 -26 2 -22 -6 3 -9 -4 -8 -15 1 -11 5 -20 10 -20 5 0 5 -6 -1 -12 -12
-15 -12 -25 -1 -56 6 -14 5 -21 0 -17 -6 3 -9 -4 -8 -15 1 -11 5 -20 10 -20 5
0 5 -6 -2 -13 -8 -10 -7 -17 2 -27 9 -9 9 -11 0 -6 -8 4 -11 -1 -10 -14 1 -11
5 -20 10 -20 5 0 5 -6 -1 -12 -15 -18 -15 -20 -3 -51 6 -16 7 -26 2 -22 -6 3
-9 -4 -8 -15 1 -11 5 -20 10 -20 5 0 5 -6 -1 -13 -7 -8 -7 -18 -2 -27 5 -8 5
-21 0 -29 -8 -16 -10 -23 -10 -41 0 -13 -32 -9 -42 5 -5 7 -10 7 -15 0 -10
-12 -103 -15 -103 -3 0 5 -6 6 -12 1 -19 -11 -102 -10 -110 2 -5 6 -11 7 -15
0 -10 -12 -103 -15 -103 -3 0 5 -6 6 -12 2 -19 -12 -108 -12 -108 0 0 6 -4 5
-9 -3 -6 -9 -11 -10 -15 -2 -5 8 -13 8 -27 1 -14 -8 -19 -7 -19 2 0 9 -3 10
-8 2 -8 -13 -42 -14 -42 -2 0 5 -6 6 -12 1 -19 -11 -102 -10 -110 2 -5 6 -11
7 -15 0 -10 -12 -103 -15 -103 -3 0 5 -5 6 -12 2 -18 -11 -68 -12 -68 -2 0 5
-5 6 -12 2 -18 -11 -68 -12 -68 -2 0 5 -5 6 -12 2 -18 -11 -68 -12 -68 -2 0 5
-5 6 -12 2 -18 -11 -68 -12 -68 -2 0 5 -5 6 -12 2 -18 -11 -68 -12 -68 -2 0 5
-5 6 -12 2 -18 -11 -68 -12 -68 -2 0 5 -5 6 -12 2 -18 -11 -68 -12 -68 -2 0 5
-5 6 -12 2 -18 -11 -68 -12 -68 -2 0 5 -5 6 -12 2 -18 -11 -68 -12 -68 -2 0 5
-5 6 -12 2 -18 -11 -68 -12 -68 -2 0 5 -5 6 -12 2 -18 -11 -68 -12 -68 -2 0 5
-5 6 -12 2 -18 -11 -68 -12 -68 -2 0 5 -5 6 -12 2 -18 -11 -68 -12 -68 -2 0 5
-5 6 -12 2 -18 -11 -68 -12 -68 -2 0 5 -5 6 -12 2 -18 -11 -68 -12 -68 -2 0 5
-5 6 -12 2 -18 -11 -68 -12 -68 -2 0 5 -5 6 -12 2 -18 -11 -68 -12 -68 -2 0 5
-6 6 -13 1 -18 -11 -101 -10 -109 2 -5 6 -11 7 -15 0 -10 -12 -103 -15 -103
-3 0 5 -6 6 -12 2 -19 -12 -108 -12 -108 0 0 6 -4 5 -9 -3 -6 -9 -11 -10 -15
-2 -5 8 -13 8 -27 1 -14 -8 -19 -7 -19 2 0 9 -3 10 -8 2 -8 -13 -42 -14 -42
-2 0 5 -6 6 -12 1 -19 -11 -102 -10 -110 2 -5 6 -11 7 -15 0 -10 -12 -103 -15
-103 -3 0 5 -6 6 -12 2 -19 -12 -108 -12 -108 0 0 6 -4 5 -9 -3 -6 -9 -11 -10
-15 -2 -5 8 -13 8 -27 1 -14 -8 -19 -7 -19 2 0 9 -3 10 -8 2 -8 -13 -42 -14
-42 -2 0 5 -6 6 -12 1 -19 -11 -102 -10 -110 2 -5 6 -11 7 -15 0 -10 -12 -103
-15 -103 -3 0 5 -5 6 -12 2 -18 -11 -68 -12 -68 -2 0 5 -5 6 -12 2 -18 -11
-68 -12 -68 -2 0 5 -5 6 -12 2 -18 -11 -68 -12 -68 -2 0 5 -5 6 -12 2 -18 -11
-68 -12 -68 -2 0 5 -5 6 -12 2 -18 -11 -68 -12 -68 -2 0 5 -5 6 -12 2 -18 -11
-68 -12 -68 -2 0 5 -5 6 -12 2 -18 -11 -68 -12 -68 -2 0 5 -5 6 -12 2 -18 -11
-68 -12 -68 -2 0 5 -5 6 -12 2 -19 -12 -108 -12 -108 0 0 6 -4 5 -9 -3 -6 -9
-11 -10 -15 -2 -5 8 -13 8 -27 1 -14 -8 -19 -7 -19 2 0 9 -3 10 -8 2 -8 -13
-42 -14 -42 -2 0 5 -6 6 -12 1 -19 -11 -102 -10 -110 2 -5 6 -11 7 -15 0 -10
-12 -103 -15 -103 -3 0 5 -6 6 -12 2 -19 -12 -108 -12 -108 0 0 6 -4 5 -9 -3
-6 -9 -11 -10 -15 -2 -5 8 -13 8 -27 1 -14 -8 -19 -7 -19 2 0 8 -3 9 -8 3 -10
-14 -82 -15 -82 -1 0 6 -4 5 -9 -3 -6 -9 -11 -10 -15 -2 -5 8 -13 8 -27 1 -14
-8 -19 -7 -19 2 0 9 -3 10 -8 2 -8 -13 -42 -14 -42 -2 0 5 -6 6 -12 1 -19 -11
-102 -10 -110 2 -5 6 -11 7 -15 0 -10 -12 -103 -15 -103 -3 0 5 -6 6 -12 2
-19 -12 -108 -12 -108 0 0 6 -4 5 -9 -3 -6 -9 -11 -10 -15 -2 -5 8 -13 8 -27
1 -14 -8 -19 -7 -19 2 0 8 -3 9 -8 3 -10 -14 -82 -15 -82 -1 0 6 -4 5 -9 -3
-6 -9 -11 -10 -15 -2 -5 8 -13 8 -27 1 -14 -8 -19 -7 -19 2 0 9 -3 10 -8 2 -8
-13 -42 -14 -42 -2 0 5 -6 6 -12 1 -19 -11 -102 -10 -110 2 -5 6 -11 7 -15 0
-10 -12 -103 -15 -103 -3 0 5 -6 6 -12 2 -19 -12 -108 -12 -108 0 0 6 -4 5 -9
-3 -6 -9 -11 -10 -15 -2 -5 8 -13 8 -27 1 -14 -8 -19 -7 -19 2 0 8 -3 9 -8 3
-10 -14 -82 -15 -82 -1 0 6 -4 5 -9 -3 -6 -9 -11 -10 -15 -2 -5 8 -13 8 -27 1
-14 -8 -19 -7 -19 2 0 9 -3 10 -8 2 -8 -13 -42 -14 -42 -2 0 5 -6 6 -12 1 -19
-11 -102 -10 -110 2 -5 6 -11 7 -15 0 -10 -12 -103 -15 -103 -3 0 5 -6 6 -12
2 -19 -12 -108 -12 -108 0 0 6 -4 5 -9 -3 -6 -9 -11 -10 -15 -2 -5 8 -13 8
-27 1 -14 -8 -19 -7 -19 2 0 9 -3 10 -8 2 -8 -13 -42 -14 -42 -2 0 5 -6 6 -12
1 -19 -11 -102 -10 -110 2 -5 6 -11 7 -15 0 -10 -12 -103 -15 -103 -3 0 5 -6
6 -12 2 -19 -12 -108 -12 -108 0 0 6 -4 5 -9 -3 -6 -9 -11 -10 -15 -2 -5 8
-13 8 -27 1 -14 -8 -19 -7 -19 2 0 9 -3 10 -8 2 -8 -13 -42 -14 -42 -2 0 5 -6
6 -12 1 -19 -11 -102 -10 -110 2 -5 6 -11 7 -15 0 -10 -12 -103 -15 -103 -3 0
5 -6 6 -12 2 -19 -12 -108 -12 -108 0 0 6 -4 5 -9 -3 -6 -9 -11 -10 -15 -2 -5
8 -13 8 -27 1 -14 -8 -19 -7 -19 2 0 9 -3 10 -8 2 -8 -13 -42 -14 -42 -2 0 5
-6 6 -12 1 -19 -11 -102 -10 -110 2 -5 6 -11 7 -15 0 -10 -12 -103 -15 -103
-3 0 5 -5 6 -12 2 -18 -11 -68 -12 -68 -2 0 5 -5 6 -12 2 -18 -11 -68 -12 -68
-2 0 5 -5 6 -12 2 -18 -11 -68 -12 -68 -2 0 5 -5 6 -12 2 -18 -11 -68 -12 -68
-2 0 5 -5 6 -12 2 -18 -11 -68 -12 -68 -2 0 5 -5 6 -12 2 -18 -11 -68 -12 -68
-2 0 5 -5 6 -12 2 -18 -11 -68 -12 -68 -2 0 5 -5 6 -12 2 -18 -11 -68 -12 -68
-2 0 5 -5 6 -12 2 -18 -11 -68 -12 -68 -2 0 5 -6 6 -12 1 -19 -11 -102 -10
-110 2 -5 6 -11 7 -15 0 -10 -12 -103 -15 -103 -3 0 5 -6 6 -12 2 -19 -12
-108 -12 -108 0 0 6 -4 5 -9 -3 -6 -9 -11 -10 -15 -2 -5 8 -13 8 -27 1 -14 -8
-19 -7 -19 2 0 9 -3 10 -8 2 -8 -13 -42 -14 -42 -2 0 5 -6 6 -12 1 -19 -11
-102 -10 -110 2 -5 6 -11 7 -15 0 -10 -12 -103 -15 -103 -3 0 5 -6 6 -12 2
-19 -12 -108 -12 -108 0 0 6 -4 5 -9 -3 -6 -9 -11 -10 -15 -2 -5 8 -13 8 -27
1 -14 -8 -19 -7 -19 2 0 9 -3 10 -8 2 -8 -13 -42 -14 -42 -2 0 5 -6 6 -12 1
-19 -11 -102 -10 -110 2 -5 6 -11 7 -15 0 -10 -12 -103 -15 -103 -3 0 5 -5 6
-12 2 -18 -11 -68 -12 -68 -2 0 5 -5 6 -12 2 -18 -11 -68 -12 -68 -2 0 5 -5 6
-12 2 -18 -11 -68 -12 -68 -2 0 5 -5 6 -12 2 -18 -11 -68 -12 -68 -2 0 5 -5 6
-12 2 -18 -11 -68 -12 -68 -2 0 5 -5 6 -12 2 -18 -11 -68 -12 -68 -2 0 5 -5 6
-12 2 -18 -11 -68 -12 -68 -2 0 5 -5 6 -12 2 -18 -11 -68 -12 -68 -2 0 5 -5 6
-12 2 -18 -11 -68 -12 -68 -2 0 5 -6 6 -12 1 -19 -11 -102 -10 -110 2 -5 6
-11 7 -15 0 -10 -12 -103 -15 -103 -3 0 5 -6 6 -12 2 -19 -12 -108 -12 -108 0
0 6 -4 5 -9 -3 -6 -9 -11 -10 -15 -2 -5 8 -13 8 -27 1 -14 -8 -19 -7 -19 2 0
9 -3 10 -8 2 -8 -13 -42 -14 -42 -2 0 5 -6 6 -12 1 -19 -11 -102 -10 -110 2
-5 6 -11 7 -15 0 -10 -12 -103 -15 -103 -3 0 5 -6 6 -12 2 -19 -12 -108 -12
-108 0 0 6 -4 5 -9 -3 -6 -9 -11 -10 -15 -2 -5 8 -13 8 -27 1 -14 -8 -19 -7
-19 2 0 9 -3 10 -8 2 -8 -13 -42 -14 -42 -2 0 5 -6 6 -13 1 -18 -11 -101 -10
-109 2 -5 6 -11 7 -15 0 -10 -12 -103 -15 -103 -3 0 5 -5 6 -12 2 -19 -12
-108 -12 -108 0 0 6 -4 5 -9 -3 -6 -9 -11 -10 -15 -2 -5 8 -13 8 -27 1 -14 -8
-19 -7 -19 2 0 9 -3 10 -8 2 -8 -13 -42 -14 -42 -2 0 5 -6 6 -12 1 -19 -11
-102 -10 -110 2 -5 6 -11 7 -15 0 -10 -12 -103 -15 -103 -3 0 5 -6 6 -12 2
-19 -12 -108 -12 -108 0 0 6 -4 5 -9 -3 -6 -9 -11 -10 -15 -2 -5 8 -13 8 -27
1 -14 -8 -19 -7 -19 2 0 8 -3 9 -8 3 -10 -14 -82 -15 -82 -1 0 6 -4 5 -9 -3
-6 -9 -11 -10 -15 -2 -5 8 -13 8 -27 1 -14 -8 -19 -7 -19 2 0 9 -3 10 -8 2 -8
-13 -42 -14 -42 -2 0 5 -6 6 -12 1 -19 -11 -102 -10 -110 2 -5 6 -11 7 -15 0
-10 -12 -103 -15 -103 -3 0 5 -6 6 -12 2 -19 -12 -108 -12 -108 0 0 6 -4 5 -9
-3 -6 -9 -11 -10 -15 -2 -5 8 -13 8 -27 1 -14 -8 -19 -7 -19 2 0 8 -3 9 -8 3
-10 -14 -82 -15 -82 -1 0 6 -4 5 -9 -3 -6 -9 -11 -10 -15 -2 -5 8 -13 8 -27 1
-14 -8 -19 -7 -19 2 0 9 -3 10 -8 2 -8 -13 -42 -14 -42 -2 0 5 -6 6 -12 1 -19
-11 -102 -10 -110 2 -5 6 -11 7 -15 0 -10 -12 -103 -15 -103 -3 0 5 -6 6 -12
2 -19 -12 -108 -12 -108 0 0 6 -4 5 -9 -3 -6 -9 -11 -10 -15 -2 -5 8 -13 8
-27 1 -14 -8 -19 -7 -19 2 0 8 -3 9 -8 3 -10 -14 -82 -15 -82 -1 0 6 -4 5 -9
-3 -6 -9 -11 -10 -15 -2 -5 8 -13 8 -27 1 -14 -8 -19 -7 -19 2 0 9 -3 10 -8 2
-8 -13 -42 -14 -42 -2 0 5 -6 6 -12 1 -19 -11 -102 -10 -110 2 -5 6 -11 7 -15
0 -10 -12 -103 -15 -103 -3 0 5 -6 6 -12 2 -19 -12 -108 -12 -108 0 0 6 -4 5
-9 -3 -6 -9 -11 -10 -15 -2 -5 8 -13 8 -27 1 -14 -8 -19 -7 -19 2 0 9 -3 10
-8 2 -8 -13 -42 -14 -42 -2 0 5 -5 6 -12 2 -18 -11 -68 -12 -68 -2 0 5 -5 6
-12 2 -18 -11 -68 -12 -68 -2 0 5 -5 6 -12 2 -18 -11 -68 -12 -68 -2 0 5 -5 6
-12 2 -18 -11 -68 -12 -68 -2 0 5 -5 6 -12 2 -18 -11 -68 -12 -68 -2 0 5 -5 6
-12 2 -18 -11 -68 -12 -68 -2 0 5 -5 6 -12 2 -18 -11 -68 -12 -68 -2 0 5 -5 6
-12 2 -18 -11 -68 -12 -68 -2 0 5 -6 6 -12 1 -19 -11 -102 -10 -110 2 -5 6
-11 7 -15 0 -10 -12 -103 -15 -103 -3 0 5 -6 6 -12 2 -19 -12 -108 -12 -108 0
0 6 -4 5 -9 -3 -6 -9 -11 -10 -15 -2 -5 8 -13 8 -27 1 -14 -8 -19 -7 -19 2 0
9 -3 10 -8 2 -8 -13 -42 -14 -42 -2 0 5 -6 6 -13 1 -18 -11 -101 -10 -109 2
-5 6 -11 7 -15 0 -10 -12 -103 -15 -103 -3 0 5 -6 6 -12 2 -19 -12 -108 -12
-108 0 0 6 -4 5 -9 -3 -6 -9 -11 -10 -15 -2 -5 8 -13 8 -27 1 -14 -8 -19 -7
-19 2 0 9 -3 10 -8 2 -8 -13 -42 -14 -42 -2 0 5 -6 6 -12 1 -19 -11 -102 -10
-110 2 -5 6 -11 7 -15 0 -10 -12 -103 -15 -103 -3 0 5 -5 6 -12 2 -18 -11 -68
-12 -68 -2 0 5 -5 6 -12 2 -18 -11 -68 -12 -68 -2 0 5 -5 6 -12 2 -18 -11 -68
-12 -68 -2 0 5 -5 6 -12 2 -18 -11 -68 -12 -68 -2 0 5 -5 6 -12 2 -18 -11 -68
-12 -68 -2 0 5 -5 6 -12 2 -18 -11 -68 -12 -68 -2 0 5 -5 6 -12 2 -18 -11 -68
-12 -68 -2 0 5 -5 6 -12 2 -18 -11 -68 -12 -68 -2 0 5 -5 6 -12 2 -18 -11 -68
-12 -68 -2 0 5 -5 6 -12 2 -18 -11 -68 -12 -68 -2 0 5 -5 6 -12 2 -18 -11 -68
-12 -68 -2 0 5 -5 6 -12 2 -18 -11 -68 -12 -68 -2 0 5 -5 6 -12 2 -18 -11 -68
-12 -68 -2 0 5 -5 6 -12 2 -18 -11 -68 -12 -68 -2 0 5 -5 6 -12 2 -18 -11 -68
-12 -68 -2 0 5 -5 6 -12 2 -18 -11 -68 -12 -68 -2 0 5 -5 6 -12 2 -18 -11 -68
-12 -68 -2 0 5 -6 6 -13 1 -18 -11 -101 -10 -109 2 -5 6 -11 7 -15 0 -10 -12
-103 -15 -103 -3 0 5 -6 6 -12 2 -19 -12 -108 -12 -108 0 0 6 -4 5 -9 -3 -6
-9 -11 -10 -15 -2 -5 8 -13 8 -27 1 -14 -8 -19 -7 -19 2 0 9 -3 10 -8 2 -8
-13 -42 -14 -42 -2 0 5 -6 6 -12 1 -19 -11 -102 -10 -110 2 -5 6 -11 7 -15 0
-10 -12 -103 -15 -103 -3 0 5 -6 6 -12 2 -19 -12 -108 -12 -108 0 0 6 -4 5 -9
-3 -6 -9 -11 -10 -15 -2 -5 8 -13 8 -27 1 -14 -8 -19 -7 -19 2 0 9 -3 10 -8 2
-8 -13 -42 -14 -42 -2 0 5 -5 6 -10 3 -12 -8 -11 -17 -13 138 -1 79 2 127 8
127 7 0 7 3 0 8 -13 9 -14 225 0 234 6 5 6 8 0 8 -6 0 -10 45 -10 115 0 70 4
115 10 115 7 0 7 3 0 8 -13 10 -14 305 0 314 6 5 7 8 0 8 -6 0 -10 39 -10 95
0 52 3 95 8 95 4 0 5 5 1 12 -12 19 -12 68 0 68 7 0 7 3 1 8 -13 9 -16 72 -3
72 5 0 6 5 2 12 -12 19 -12 68 0 68 7 0 7 3 1 8 -13 9 -14 105 0 114 6 5 6 8
0 8 -6 0 -10 45 -10 115 0 70 4 115 10 115 7 0 7 3 0 8 -13 9 -14 225 0 234 6
5 6 8 0 8 -5 0 -10 25 -10 55 -1 30 3 55 8 55 4 0 5 5 1 12 -12 19 -12 68 0
68 7 0 7 3 1 8 -13 9 -16 72 -3 72 5 0 6 5 2 12 -12 19 -12 68 0 68 7 0 7 3 1
8 -13 10 -14 185 0 194 6 5 6 8 0 8 -6 0 -10 58 -10 155 0 97 4 155 10 155 7
0 7 3 0 8 -13 9 -14 225 0 234 6 5 6 8 0 8 -6 0 -10 45 -10 115 0 70 4 115 10
115 7 0 7 3 0 8 -13 9 -14 225 0 234 6 5 6 8 0 8 -13 0 -13 150 0 150 7 0 7 3
0 8 -13 9 -14 225 0 234 6 5 6 8 0 8 -6 0 -10 45 -10 115 0 70 4 115 10 115 7
0 7 3 0 8 -13 10 -14 232 0 232 7 0 7 3 0 8 -13 10 -14 305 0 314 6 5 7 8 0 8
-6 0 -10 39 -10 95 0 52 3 95 8 95 4 0 5 5 1 12 -12 19 -12 68 0 68 7 0 7 3 1
8 -13 9 -16 72 -3 72 5 0 6 5 2 12 -12 19 -12 68 0 68 7 0 7 3 1 8 -13 9 -14
105 0 114 6 5 6 8 0 8 -6 0 -10 45 -10 115 0 70 4 115 10 115 7 0 7 3 0 8 -13
9 -14 225 0 234 6 5 6 8 0 8 -5 0 -10 25 -10 55 -1 30 3 55 8 55 4 0 5 5 1 12
-12 19 -12 68 0 68 7 0 7 3 1 8 -13 9 -16 72 -3 72 5 0 6 5 2 12 -12 19 -12
68 0 68 7 0 7 3 1 8 -13 10 -14 185 0 194 6 5 6 8 0 8 -6 0 -10 58 -10 155 0
97 4 155 10 155 7 0 7 3 0 8 -13 9 -14 225 0 234 6 5 6 8 0 8 -6 0 -10 45 -10
115 0 70 4 115 10 115 7 0 7 3 0 8 -13 9 -14 225 0 234 6 5 6 8 0 8 -13 0 -13
150 0 150 7 0 7 3 0 8 -13 9 -14 225 0 234 6 5 6 8 0 8 -6 0 -10 45 -10 115 0
70 4 115 10 115 7 0 7 3 0 8 -13 10 -14 232 0 232 7 0 7 3 0 8 -13 10 -14 305
0 314 6 5 7 8 0 8 -6 0 -10 39 -10 95 0 52 3 95 8 95 4 0 5 5 1 12 -12 19 -12
68 0 68 7 0 7 3 1 8 -13 9 -16 72 -3 72 5 0 6 5 2 12 -12 19 -12 68 0 68 7 0
7 3 1 8 -13 9 -14 105 0 114 6 5 6 8 0 8 -6 0 -10 45 -10 115 0 70 4 115 10
115 7 0 7 3 0 8 -13 9 -14 225 0 234 6 5 6 8 0 8 -5 0 -10 25 -10 55 -1 30 3
55 8 55 4 0 5 5 1 12 -12 19 -12 68 0 68 7 0 7 3 1 8 -13 9 -16 72 -3 72 5 0
6 5 2 12 -12 19 -12 68 0 68 7 0 7 3 1 8 -13 10 -14 185 0 194 6 5 6 8 0 8 -6
0 -10 58 -10 155 0 97 4 155 10 155 7 0 7 3 0 8 -13 9 -14 225 0 234 6 5 6 8
0 8 -6 0 -10 45 -10 115 0 70 4 115 10 115 7 0 7 3 0 8 -13 9 -14 225 0 234 6
5 6 8 0 8 -13 0 -13 150 0 150 7 0 7 3 0 8 -13 9 -14 225 0 234 6 5 6 8 0 8
-6 0 -10 45 -10 115 0 70 4 115 10 115 7 0 7 3 0 8 -13 10 -14 232 0 232 7 0
7 3 0 8 -13 10 -14 305 0 314 6 5 7 8 0 8 -6 0 -10 39 -10 95 0 52 3 95 8 95
4 0 5 5 1 12 -12 19 -12 68 0 68 7 0 7 3 1 8 -13 9 -16 72 -3 72 5 0 6 5 2 12
-12 19 -12 68 0 68 7 0 7 3 1 8 -13 9 -14 105 0 114 6 5 6 8 0 8 -6 0 -10 45
-10 115 0 70 4 115 10 115 7 0 7 3 0 8 -13 9 -14 225 0 234 6 5 6 8 0 8 -5 0
-10 25 -10 55 -1 30 3 55 8 55 4 0 5 5 1 12 -12 19 -12 68 0 68 7 0 7 3 1 8
-13 9 -16 72 -3 72 5 0 6 5 2 12 -12 19 -12 68 0 68 7 0 7 3 1 8 -13 10 -14
185 0 194 6 5 6 8 0 8 -6 0 -10 58 -10 155 0 97 4 155 10 155 7 0 7 3 0 8 -13
9 -14 225 0 234 6 5 6 8 0 8 -6 0 -10 45 -10 115 0 70 4 115 10 115 7 0 7 3 0
8 -13 9 -14 225 0 234 6 5 6 8 0 8 -13 0 -13 150 0 150 7 0 7 3 0 8 -13 9 -14
225 0 234 6 5 6 8 0 8 -6 0 -10 45 -10 115 0 70 4 115 10 115 7 0 7 3 0 8 -13
10 -14 232 0 232 7 0 7 3 0 8 -13 10 -14 305 0 314 6 5 7 8 0 8 -6 0 -10 39
-10 95 0 52 3 95 8 95 4 0 5 5 1 12 -12 19 -12 68 0 68 7 0 7 3 1 8 -13 9 -16
72 -3 72 5 0 6 5 2 12 -12 19 -12 68 0 68 7 0 7 3 1 8 -13 9 -14 105 0 114 6
5 6 8 0 8 -6 0 -10 45 -10 115 0 70 4 115 10 115 7 0 7 3 0 8 -13 9 -14 225 0
234 6 5 6 8 0 8 -5 0 -10 25 -10 55 -1 30 3 55 8 55 4 0 5 5 1 12 -12 19 -12
68 0 68 7 0 7 3 1 8 -13 9 -16 72 -3 72 5 0 6 5 2 12 -12 19 -12 68 0 68 7 0
7 3 1 8 -14 10 -14 192 0 192 6 0 7 3 0 8 -13 10 -14 305 0 314 6 5 7 8 0 8
-11 0 -12 116 -1 127 11 11 206 9 206 -2 0 -6 3 -6 8 0 8 12 92 12 110 1 7 -4
12 -3 12 1 0 11 92 9 109 -1 6 -4 11 -3 11 1 0 11 92 9 109 -1 6 -4 11 -3 11
1 0 11 92 9 109 -1 6 -4 11 -3 11 1 0 11 92 9 109 -1 6 -4 11 -3 11 1 0 11 92
9 109 -1 6 -4 11 -3 11 1 0 11 92 9 109 -1 6 -4 11 -3 11 1 0 11 92 9 109 -1
6 -4 11 -3 11 1 0 11 92 9 109 -1 6 -4 11 -3 11 1 0 11 92 9 109 -1 6 -4 11
-3 11 1 0 11 92 9 109 -1 6 -4 11 -3 11 1 0 11 92 9 109 -1 6 -4 11 -3 11 1 0
11 92 9 109 -1 6 -4 11 -3 11 1 0 11 92 9 109 -1 6 -4 11 -3 11 1 0 11 92 9
109 -1 6 -4 11 -3 11 1 0 11 92 9 109 -1 6 -4 11 -3 11 1 0 11 92 9 109 -1 6
-4 11 -3 11 1 0 11 92 9 109 -1 6 -4 11 -3 11 1 0 11 92 9 109 -1 6 -4 11 -3
11 1 0 11 92 9 109 -1 6 -4 11 -3 11 1 0 11 92 9 109 -1 6 -4 11 -3 11 1 0 11
92 9 109 -1 6 -4 11 -3 11 1 0 11 92 9 109 -1 6 -4 11 -3 11 1 0 11 92 9 109
-1 6 -4 11 -3 11 1 0 11 92 9 109 -1 6 -4 11 -3 11 1 0 11 92 9 109 -1 6 -4
11 -3 11 1 0 11 92 9 109 -1 6 -4 11 -3 11 1 0 11 92 9 109 -1 6 -4 11 -3 11
1 0 11 92 9 109 -1 6 -4 11 -3 11 1 0 11 92 9 109 -1 6 -4 11 -3 11 1 0 11 92
9 109 -1 6 -4 11 -3 11 1 0 11 92 9 109 -1 6 -4 11 -3 11 1 0 11 92 9 109 -1
6 -4 11 -3 11 2 0 11 50 9 68 -2 7 -4 12 -3 12 1 0 11 92 9 109 -1 6 -4 11 -3
11 1 0 11 92 9 109 -1 6 -4 11 -3 11 1 0 11 92 9 109 -1 6 -4 11 -3 11 1 0 11
92 9 109 -1 6 -4 11 -3 11 1 0 11 92 9 109 -1 6 -4 11 -3 11 1 0 11 92 9 109
-1 6 -4 11 -3 11 1 0 11 92 9 109 -1 6 -4 11 -3 11 1 0 11 92 9 109 -1 6 -4
11 -3 11 1 0 11 92 9 109 -1 6 -4 11 -3 11 1 0 11 92 9 109 -1 6 -4 11 -3 11
1 0 11 92 9 109 -1 6 -4 11 -3 11 1 0 11 92 9 109 -1 6 -4 11 -3 11 1 0 11 92
9 109 -1 6 -4 11 -3 11 1 0 11 92 9 109 -1 6 -4 11 -3 11 1 0 11 92 9 109 -1
6 -4 11 -3 11 1 0 11 92 9 109 -1 6 -4 11 -3 11 1 0 11 92 9 109 -1 6 -4 11
-3 11 1 0 11 92 9 109 -1 6 -4 11 -3 11 1 0 11 92 9 109 -1 6 -4 11 -3 11 1 0
11 92 9 109 -1 6 -4 11 -3 11 1 0 11 92 9 109 -1 6 -4 11 -3 11 1 0 11 92 9
109 -1 6 -4 11 -3 11 1 0 11 92 9 109 -1 6 -4 11 -3 11 1 0 11 92 9 109 -1 6
-4 11 -3 11 1 0 11 92 9 109 -1 6 -4 11 -3 11 1 0 11 92 9 109 -1 6 -4 11 -3
11 1 0 11 92 9 109 -1 6 -4 11 -3 11 1 0 11 92 9 109 -1 6 -4 11 -3 11 1 0 11
92 9 109 -1 6 -4 11 -3 11 1 0 11 92 9 109 -1 6 -4 11 -3 11 1 0 11 92 9 109
-1 6 -4 11 -3 11 1 0 11 92 9 109 -1 6 -4 11 -3 11 1 0 11 92 9 109 -1 6 -4
11 -3 11 1 0 11 92 9 109 -1 6 -4 11 -3 11 1 0 11 92 9 109 -1 6 -4 11 -3 11
1 0 11 92 9 109 -1 6 -4 11 -3 11 1 0 11 92 9 109 -1 6 -4 11 -3 11 1 0 11 92
9 109 -1 6 -4 11 -3 11 1 0 11 92 9 109 -1 6 -4 11 -3 11 1 0 11 92 9 109 -1
6 -4 11 -3 11 1 0 11 92 9 109 -1 6 -4 11 -3 11 1 0 11 92 9 109 -1 6 -4 11
-4 11 1 0 12 5223 10 5232 -2 5 -7 8 -6 8 1 0 11 90 12 109 0 6 -4 11 -3 11 1
0 11 92 9 109 -1 6 -4 11 -3 11 1 0 11 92 9 109 -1 6 -4 11 -3 11 1 0 11 92 9
109 -1 6 -4 11 -3 11 1 0 11 92 9 109 -1 6 -4 11 -3 11 1 0 11 92 9 109 -1 6
-4 11 -3 11 1 0 11 92 9 109 -1 6 -4 11 -3 11 1 0 11 92 9 109 -1 6 -4 11 -3
11 1 0 11 92 9 109 -1 6 -4 11 -3 11 1 0 11 92 9 109 -1 6 -4 11 -3 11 1 0 11
92 9 109 -1 6 -4 11 -3 11 1 0 11 92 9 109 -1 6 -4 11 -3 11 1 0 11 92 9 109
-1 6 -4 11 -3 11 1 0 11 92 9 109 -1 6 -4 11 -3 11 1 0 11 92 9 109 -1 6 -4
11 -3 11 1 0 11 92 9 109 -1 6 -4 11 -3 11 1 0 11 92 9 109 -1 6 -4 11 -3 11
1 0 11 92 9 109 -1 6 -4 11 -3 11 1 0 11 92 9 109 -1 6 -4 11 -3 11 1 0 11 92
9 109 -1 6 -4 11 -3 11 1 0 11 92 9 109 -1 6 -4 11 -3 11 1 0 11 92 9 109 -1
6 -4 11 -3 11 1 0 11 92 9 109 -1 6 -4 11 -3 11 1 0 11 92 9 109 -1 6 -4 11
-3 11 1 0 11 92 9 109 -1 6 -4 11 -3 11 1 0 11 92 9 109 -1 6 -4 11 -3 11 1 0
11 92 9 109 -1 6 -4 11 -3 11 1 0 11 92 9 109 -1 6 -4 11 -3 11 1 0 11 92 9
109 -1 6 -4 11 -3 11 1 0 11 92 9 109 -1 6 -4 11 -3 11 1 0 11 92 9 109 -1 6
-4 11 -3 11 1 0 11 92 9 109 -1 6 -4 11 -3 11 1 0 11 92 9 109 -1 6 -4 11 -3
11 2 0 5 15 8 33 6 17 -1 38 -3 45 -3 7 -1 11 -5 7 -10 -3 -5 -1 -12 5 -16 6
-4 7 -11 4 -17 -10 -15 -11 -99 -1 -105 4 -2 3 -11 -3 -18 -8 -10 -8 -15 0
-20 8 -5 8 -10 0 -20 -8 -10 -8 -15 0 -20 8 -5 8 -10 0 -20 -8 -9 -8 -15 0
-20 6 -4 7 -12 1 -23 -5 -9 -5 -26 0 -40 5 -14 5 -21 0 -17 -6 3 -9 -4 -8 -15
1 -11 5 -20 10 -20 5 0 5 -6 -1 -12 -15 -18 -15 -20 -3 -51 6 -16 7 -26 2 -22
-6 3 -9 -4 -8 -15 1 -11 5 -20 10 -20 5 0 3 -7 -4 -17 -8 -9 -13 -17 -12 -17
1 -1 6 -14 12 -29 6 -16 7 -26 2 -22 -6 3 -9 -4 -8 -15 1 -11 5 -20 10 -20 5
0 5 -6 -1 -12 -15 -18 -15 -20 -3 -51 6 -16 7 -26 2 -22 -6 3 -9 -4 -8 -15 1
-11 5 -20 10 -20 5 0 3 -7 -4 -17 -8 -9 -13 -17 -12 -17 1 -1 6 -14 12 -29 6
-16 7 -26 2 -22 -6 3 -9 -4 -8 -15 1 -11 5 -20 10 -20 6 0 6 -5 0 -12 -11 -15
-11 -58 0 -75 4 -6 3 -15 -3 -18 -8 -5 -8 -11 0 -20 8 -10 8 -15 0 -20 -8 -5
-8 -10 0 -20 8 -10 8 -15 0 -20 -8 -5 -8 -10 0 -20 8 -10 8 -15 0 -20 -8 -5
-8 -10 0 -20 8 -10 8 -15 0 -20 -8 -5 -8 -10 0 -20 8 -10 8 -15 0 -20 -8 -5
-8 -10 0 -20 8 -10 8 -15 0 -20 -8 -5 -8 -10 0 -20 8 -10 8 -15 0 -20 -8 -5
-8 -10 0 -20 8 -10 8 -15 0 -20 -8 -5 -8 -10 0 -20 8 -10 8 -15 0 -20 -8 -5
-8 -10 0 -20 8 -10 8 -15 0 -20 -8 -5 -8 -10 0 -20 8 -10 8 -15 0 -20 -8 -5
-8 -10 0 -20 8 -10 8 -15 0 -20 -8 -5 -8 -10 0 -20 8 -10 8 -15 0 -20 -8 -5
-8 -10 0 -20 8 -10 8 -15 0 -20 -7 -5 -8 -11 -1 -19 6 -7 6 -18 1 -26 -4 -7
-4 -24 1 -37 5 -15 5 -22 0 -18 -6 3 -9 -4 -8 -15 1 -11 5 -20 10 -20 5 0 5
-6 -1 -12 -12 -15 -12 -25 -1 -56 6 -14 5 -21 0 -17 -6 3 -9 -4 -8 -15 1 -11
5 -20 10 -20 5 0 5 -6 -1 -12 -15 -18 -15 -20 -3 -51 6 -16 7 -26 2 -22 -6 3
-9 -4 -8 -15 1 -11 5 -20 10 -20 5 0 5 -6 -1 -12 -12 -15 -12 -25 -1 -56 6
-14 5 -21 0 -17 -6 3 -9 -4 -8 -15 1 -11 5 -20 10 -20 5 0 5 -6 -1 -12 -15
-18 -15 -20 -3 -51 6 -16 7 -26 2 -22 -6 3 -9 -4 -8 -15 1 -11 5 -20 10 -20 6
0 6 -5 0 -12 -11 -15 -11 -58 0 -75 4 -6 3 -15 -3 -18 -8 -5 -8 -11 0 -20 8
-10 8 -15 0 -20 -8 -5 -8 -10 0 -20 8 -10 8 -15 0 -20 -8 -5 -8 -10 0 -20 8
-10 8 -15 0 -20 -8 -5 -8 -10 0 -20 8 -10 8 -15 0 -20 -8 -5 -8 -10 0 -20 8
-10 8 -15 0 -20 -8 -5 -8 -10 0 -20 8 -10 8 -15 0 -20 -8 -5 -8 -10 0 -20 8
-10 8 -15 0 -20 -8 -5 -8 -10 0 -20 8 -10 8 -15 0 -20 -8 -5 -8 -10 0 -20 8
-10 8 -15 0 -20 -8 -5 -8 -10 0 -20 8 -10 8 -15 0 -20 -8 -5 -8 -10 0 -20 8
-10 8 -15 0 -20 -8 -5 -8 -10 0 -20 8 -10 8 -15 0 -20 -8 -5 -8 -10 0 -20 8
-10 8 -15 0 -20 -8 -5 -8 -10 0 -20 8 -10 8 -15 0 -20 -7 -5 -8 -11 -1 -19 6
-7 6 -18 1 -26 -4 -7 -4 -24 1 -37 5 -15 5 -22 0 -18 -6 3 -9 -4 -8 -15 1 -11
5 -20 10 -20 5 0 5 -6 -1 -12 -15 -18 -15 -20 -3 -51 6 -16 7 -26 2 -22 -6 3
-9 -4 -8 -15 1 -11 5 -20 10 -20 5 0 3 -7 -4 -17 -8 -9 -12 -19 -10 -22 11
-19 20 -51 12 -46 -6 3 -9 -4 -8 -15 1 -11 5 -20 10 -20 5 0 5 -6 -1 -12 -15
-18 -15 -20 -3 -51 6 -16 7 -26 2 -22 -6 3 -9 -4 -8 -15 1 -11 5 -20 10 -20 5
0 5 -6 -1 -12 -15 -18 -15 -20 -3 -51 6 -16 7 -26 2 -22 -6 3 -9 -4 -8 -15 1
-11 5 -20 10 -20 6 0 6 -5 0 -12 -11 -15 -11 -58 0 -75 4 -6 3 -15 -3 -18 -8
-5 -8 -11 0 -20 8 -10 8 -15 0 -20 -8 -5 -8 -10 0 -20 8 -10 8 -15 0 -20 -8
-5 -8 -10 0 -20 8 -10 8 -15 0 -20 -8 -5 -8 -10 0 -20 8 -10 8 -15 0 -20 -8
-5 -8 -10 0 -20 8 -10 8 -15 0 -20 -8 -5 -8 -10 0 -20 8 -10 8 -15 0 -20 -8
-5 -8 -10 0 -20 8 -10 8 -15 0 -20 -8 -5 -8 -10 0 -20 8 -10 8 -15 0 -20 -8
-5 -8 -10 0 -20 8 -10 8 -15 0 -20 -8 -5 -8 -10 0 -20 8 -10 8 -15 0 -20 -8
-5 -8 -10 0 -20 8 -10 8 -15 0 -20 -8 -5 -8 -10 0 -20 8 -10 8 -15 0 -20 -8
-5 -8 -10 0 -20 8 -10 8 -15 0 -20 -8 -5 -8 -10 0 -20 8 -10 8 -15 0 -20 -7
-5 -8 -11 -1 -19 6 -7 6 -18 1 -26 -4 -7 -4 -24 1 -37 5 -15 5 -22 0 -18 -6 3
-9 -4 -8 -15 1 -11 5 -20 10 -20 5 0 5 -6 -1 -13 -15 -17 -15 -19 -3 -50 6
-16 7 -26 2 -22 -6 3 -9 -4 -8 -15 1 -11 5 -20 10 -20 5 0 5 -6 -1 -12 -15
-18 -15 -20 -3 -51 6 -16 7 -26 2 -22 -6 3 -9 -4 -8 -15 1 -11 5 -20 10 -20 5
0 5 -6 -1 -12 -15 -18 -15 -20 -3 -51 6 -16 7 -26 2 -22 -6 3 -9 -4 -8 -15 1
-11 5 -20 10 -20 5 0 5 -6 -1 -12 -15 -18 -15 -20 -3 -51 6 -16 7 -26 2 -22
-6 3 -9 -4 -8 -15 1 -11 5 -20 10 -20 6 0 6 -5 0 -12 -11 -15 -11 -58 0 -75 4
-6 3 -15 -3 -18 -8 -5 -8 -11 0 -20 8 -10 8 -15 0 -20 -8 -5 -8 -10 0 -20 8
-10 8 -15 0 -20 -8 -5 -8 -10 0 -20 8 -10 8 -15 0 -20 -8 -5 -8 -10 0 -20 8
-10 8 -15 0 -20 -8 -5 -8 -10 0 -20 8 -10 8 -15 0 -20 -8 -5 -8 -10 0 -20 8
-10 8 -15 0 -20 -8 -5 -8 -10 0 -20 8 -10 8 -15 0 -20 -8 -5 -8 -10 0 -20 8
-10 8 -15 0 -20 -8 -5 -8 -10 0 -20 8 -10 8 -15 0 -20 -8 -5 -8 -10 0 -20 8
-10 8 -15 0 -20 -8 -5 -8 -10 0 -20 8 -10 8 -15 0 -20 -8 -5 -8 -10 0 -20 8
-10 8 -15 0 -20 -8 -5 -8 -10 0 -20 8 -10 8 -15 0 -20 -8 -5 -8 -10 0 -20 8
-10 8 -15 0 -20 -7 -5 -8 -11 -1 -19 6 -7 6 -18 1 -26 -4 -7 -4 -24 1 -37 5
-15 5 -22 0 -18 -6 3 -9 -4 -8 -15 1 -11 5 -20 10 -20 5 0 5 -6 -1 -12 -15
-18 -15 -20 -3 -51 6 -16 7 -26 2 -22 -6 3 -9 -4 -8 -15 1 -11 5 -20 10 -20 5
0 5 -6 -1 -12 -12 -15 -12 -25 -1 -56 6 -14 5 -21 0 -17 -6 3 -9 -4 -8 -15 1
-11 5 -20 10 -20 5 0 5 -6 -1 -12 -12 -15 -12 -25 -1 -56 6 -14 5 -21 0 -17
-6 3 -9 -4 -8 -15 1 -11 5 -20 10 -20 5 0 5 -6 -1 -12 -12 -15 -12 -25 -1 -56
6 -14 5 -21 0 -17 -6 3 -9 -4 -8 -15 1 -11 5 -20 10 -20 6 0 6 -5 0 -12 -11
-15 -11 -58 0 -75 4 -6 3 -15 -3 -18 -8 -5 -8 -11 0 -20 8 -10 8 -15 0 -20 -8
-5 -8 -10 0 -20 8 -10 8 -15 0 -20 -8 -5 -8 -10 0 -20 8 -10 8 -15 0 -20 -8
-5 -8 -10 0 -20 8 -10 8 -15 0 -20 -8 -5 -8 -10 0 -20 8 -10 8 -15 0 -20 -8
-5 -8 -10 0 -20 8 -10 8 -15 0 -20 -8 -5 -8 -10 0 -20 8 -10 8 -15 0 -20 -8
-5 -8 -10 0 -20 8 -10 8 -15 0 -20 -8 -5 -8 -10 0 -20 8 -10 8 -15 0 -20 -8
-5 -8 -10 0 -20 8 -10 8 -15 0 -20 -8 -5 -8 -10 0 -20 8 -10 8 -15 0 -20 -8
-5 -8 -10 0 -20 8 -10 8 -15 0 -20 -8 -5 -8 -10 0 -20 8 -10 8 -15 0 -20 -8
-5 -8 -10 0 -20 8 -10 8 -15 0 -20 -7 -5 -8 -11 -1 -19 6 -7 6 -18 1 -26 -4
-7 -4 -24 1 -37 5 -15 5 -22 0 -18 -6 3 -9 -4 -8 -15 1 -11 5 -20 10 -20 5 0
5 -6 -1 -12 -15 -18 -15 -20 -3 -51 6 -16 7 -26 2 -22 -6 3 -9 -4 -8 -15 1
-11 5 -20 10 -20 5 0 5 -6 -1 -12 -12 -15 -12 -25 -1 -56 6 -14 5 -21 0 -17
-6 3 -9 -4 -8 -15 1 -11 5 -20 10 -20 5 0 5 -6 -1 -13 -7 -8 -7 -18 -2 -27 5
-8 5 -21 0 -31 -5 -9 -6 -19 -3 -23 7 -7 3 -7 -179 -9 -86 -1 -138 2 -138 8 0
6 -4 4 -9 -3 -11 -17 -21 -17 -32 0 -5 7 -9 9 -9 3 0 -6 -38 -10 -92 -10 -51
0 -96 5 -100 10 -5 6 -8 6 -8 -1 0 -6 -7 -11 -15 -11 -8 0 -15 5 -15 11 0 7
-3 7 -8 1 -4 -5 -47 -10 -97 -10 -49 0 -93 5 -97 10 -5 6 -8 6 -8 -1 0 -6 -7
-11 -15 -11 -8 0 -15 5 -15 11 0 7 -3 7 -8 1 -4 -5 -47 -10 -97 -10 -49 0 -93
5 -97 10 -5 6 -8 6 -8 -1 0 -6 -7 -11 -15 -11 -8 0 -15 5 -15 11 0 7 -3 7 -8
1 -4 -5 -47 -10 -97 -10 -49 0 -93 5 -97 10 -5 6 -8 6 -8 -1 0 -6 -7 -11 -15
-11 -8 0 -15 5 -15 11 0 7 -3 7 -8 1 -4 -5 -47 -10 -97 -10 -49 0 -93 5 -97
10 -5 6 -8 6 -8 -1 0 -6 -7 -11 -15 -11 -8 0 -15 5 -15 11 0 7 -3 7 -8 1 -4
-5 -47 -10 -97 -10 -49 0 -93 5 -97 10 -5 6 -8 6 -8 -1 0 -6 -7 -11 -15 -11
-8 0 -15 5 -15 11 0 7 -3 7 -8 1 -4 -5 -47 -10 -97 -10 -49 0 -93 5 -97 10 -5
6 -8 6 -8 -1 0 -6 -7 -11 -15 -11 -8 0 -15 5 -15 11 0 7 -3 7 -8 1 -4 -6 -75
-10 -177 -10 -102 0 -173 4 -177 10 -5 6 -8 6 -8 -1 0 -6 -7 -11 -15 -11 -8 0
-15 5 -15 11 0 7 -3 7 -8 1 -4 -5 -47 -10 -97 -10 -49 0 -93 5 -97 10 -5 6 -8
6 -8 -1 0 -6 -7 -11 -15 -11 -8 0 -15 5 -15 11 0 7 -3 7 -8 1 -4 -6 -75 -10
-177 -10 -102 0 -173 4 -177 10 -5 6 -8 6 -8 -1 0 -6 -7 -11 -15 -11 -8 0 -15
5 -15 11 0 7 -3 7 -8 1 -4 -5 -47 -10 -97 -10 -49 0 -93 5 -97 10 -5 6 -8 6
-8 -1 0 -6 -7 -11 -15 -11 -8 0 -15 5 -15 11 0 7 -3 7 -8 1 -4 -6 -75 -10
-177 -10 -102 0 -173 4 -177 10 -5 6 -8 6 -8 -1 0 -6 -7 -11 -15 -11 -8 0 -15
5 -15 11 0 7 -3 7 -8 1 -4 -5 -47 -10 -97 -10 -49 0 -93 5 -97 10 -5 6 -8 6
-8 -1 0 -6 -7 -11 -15 -11 -8 0 -15 5 -15 11 0 7 -3 7 -8 1 -4 -5 -47 -10 -97
-10 -49 0 -93 5 -97 10 -5 6 -8 6 -8 -1 0 -6 -7 -11 -15 -11 -8 0 -15 5 -15
11 0 7 -3 7 -8 1 -4 -5 -47 -10 -97 -10 -49 0 -93 5 -97 10 -5 6 -8 6 -8 -1 0
-6 -7 -11 -15 -11 -8 0 -15 5 -15 11 0 7 -3 7 -8 1 -4 -5 -47 -10 -97 -10 -49
0 -93 5 -97 10 -5 6 -8 6 -8 -1 0 -6 -7 -11 -15 -11 -8 0 -15 5 -15 11 0 7 -3
7 -8 1 -4 -5 -47 -10 -97 -10 -49 0 -93 5 -97 10 -5 6 -8 6 -8 -1 0 -6 -7 -11
-15 -11 -8 0 -15 5 -15 11 0 7 -3 7 -8 1 -4 -5 -47 -10 -97 -10 -49 0 -93 5
-97 10 -5 6 -8 6 -8 -1 0 -6 -7 -11 -15 -11 -8 0 -15 5 -15 11 0 7 -3 7 -8 1
-4 -5 -47 -10 -97 -10 -49 0 -93 5 -97 10 -5 6 -8 6 -8 -2 0 -14 -39 -8 -54 8
-8 9 -7 10 4 4 13 -8 13 -7 1 8 -11 14 -11 17 0 17 9 0 10 3 4 8 -12 8 -13 32
-2 49 4 6 3 14 -2 17 -10 7 -9 25 2 44 5 6 4 12 0 12 -5 0 -9 11 -9 25 0 14 4
25 9 25 5 0 5 6 -1 13 -17 20 -17 23 -3 40 7 10 9 17 4 17 -5 0 -9 11 -9 25 0
14 4 25 9 25 5 0 5 6 -1 13 -13 15 -13 29 0 45 6 6 6 12 1 12 -5 0 -9 11 -9
25 0 14 4 25 9 25 5 0 5 6 -1 13 -6 6 -10 17 -10 22 0 6 4 16 10 23 6 6 6 12
1 12 -5 0 -9 11 -9 25 0 14 4 25 9 25 6 0 6 5 0 13 -11 14 -11 27 0 45 5 6 4
12 0 12 -5 0 -9 11 -9 25 0 14 4 25 9 25 4 0 5 6 0 13 -11 18 -12 36 -2 43 5
3 5 12 0 23 -6 10 -6 23 -1 31 5 8 6 19 2 25 -10 16 -11 34 -1 40 4 3 4 16 -1
30 -6 15 -6 27 0 30 6 4 6 14 -2 28 -14 26 -14 27 4 38 7 5 8 9 2 9 -11 0 -12
35 -1 46 3 4 1 16 -5 28 -14 25 -13 26 4 37 7 5 8 9 2 9 -11 0 -12 35 -1 46 3
4 1 16 -5 28 -14 25 -13 26 4 37 7 5 8 9 2 9 -11 0 -12 35 -1 46 3 4 2 14 -2
23 -14 25 -14 33 1 42 7 5 8 9 2 9 -11 0 -12 35 -1 46 3 4 1 16 -5 28 -14 25
-13 26 4 37 7 5 8 9 2 9 -11 0 -12 35 -1 46 3 4 2 14 -2 23 -14 25 -14 33 1
42 7 5 8 9 2 9 -11 0 -12 35 -1 46 3 4 3 14 -2 23 -9 20 -8 52 2 69 5 6 4 12
-2 12 -10 0 -8 31 4 49 3 5 1 12 -4 15 -10 7 -9 25 2 44 5 6 4 12 -2 12 -10 0
-9 19 2 38 5 6 4 12 -1 12 -11 0 -10 40 1 58 5 6 4 12 0 12 -5 0 -9 14 -8 30
0 17 4 30 9 30 5 0 4 6 -1 13 -11 14 -11 27 0 45 5 6 4 12 0 12 -5 0 -9 11 -9
25 0 14 4 25 9 25 6 0 6 5 0 13 -11 14 -11 27 0 45 5 6 4 12 0 12 -5 0 -9 11
-9 25 0 14 4 25 9 25 4 0 5 6 0 13 -11 18 -10 87 2 87 6 0 7 3 0 8 -5 4 -10
14 -10 22 0 8 5 18 10 22 7 5 6 8 -1 8 -12 0 -13 51 0 65 10 12 46 15 46 4 0
-9 20 -6 37 4 6 4 14 3 17 -2 7 -10 25 -9 44 2 7 5 12 3 12 -3 0 -7 6 -8 17
-2 9 6 29 6 45 2 17 -5 28 -5 28 1 0 6 4 7 10 4 15 -9 93 -10 108 -2 6 5 12 5
12 0 0 -10 52 -9 68 1 7 4 12 3 12 -2 0 -5 7 -9 15 -9 8 0 15 3 15 7 0 3 9 6
20 6 11 0 20 -3 20 -7 0 -9 20 -6 37 4 6 4 14 3 17 -2 7 -11 25 -9 45 3 7 5
16 5 20 -1 7 -10 21 -11 38 0 6 4 14 3 17 -2 7 -10 25 -9 44 2 7 5 12 3 12 -3
0 -7 6 -8 18 -2 9 5 26 6 37 2 11 -4 26 -3 32 2 7 6 13 7 13 2 0 -11 51 -10
68 0 7 4 12 3 12 -2 0 -5 7 -9 15 -9 8 0 15 3 15 7 0 3 9 6 20 6 11 0 20 -3
20 -7 0 -9 20 -6 37 4 6 4 14 3 17 -2 7 -11 25 -9 45 3 7 5 16 5 20 -1 7 -10
21 -11 38 0 6 4 14 3 17 -2 7 -10 25 -9 44 2 7 5 12 3 12 -3 0 -6 5 -8 11 -5
17 11 59 13 59 2 0 -5 8 -3 17 4 15 12 16 12 9 -1 -7 -12 -5 -11 9 1 17 17 27
89 12 89 -4 0 -4 8 1 18 9 19 8 54 -2 71 -4 6 -2 11 5 11 8 0 8 4 -1 15 -10
12 -10 18 0 30 7 8 8 15 3 15 -5 0 -9 9 -9 20 0 11 3 20 6 20 4 0 7 7 7 15 0
8 -4 15 -9 15 -5 0 -5 8 -1 18 10 20 9 64 -1 81 -4 6 -2 11 5 11 9 0 9 3 0 14
-9 11 -9 20 -2 35 8 14 8 22 1 26 -8 5 -7 12 1 22 8 9 9 17 3 21 -14 10 -16
32 -3 32 8 0 8 4 1 13 -7 8 -7 18 -2 27 5 8 5 21 -1 32 -7 13 -6 18 2 18 8 0
8 4 1 13 -15 18 -15 29 0 38 9 6 10 9 1 9 -9 0 -10 7 -3 26 7 16 7 23 0 19 -6
-3 -10 -1 -10 6 0 8 -3 9 -13 0 -8 -6 -17 -7 -21 -3 -12 11 -86 10 -86 -2 0
-8 -3 -8 -8 -1 -4 6 -20 11 -37 11 -16 0 -33 -5 -37 -11 -5 -7 -8 -7 -8 0 0 6
-16 11 -35 11 -19 0 -35 -5 -35 -11 0 -7 -3 -7 -8 0 -4 6 -20 11 -37 11 -16 0
-33 -5 -37 -11 -5 -7 -8 -7 -8 0 0 6 -16 11 -35 11 -19 0 -35 -5 -35 -11 0 -7
-3 -7 -8 0 -4 6 -20 11 -37 11 -16 0 -33 -5 -37 -11 -5 -7 -8 -7 -8 0 0 6 -16
11 -35 11 -19 0 -35 -5 -35 -11 0 -7 -3 -7 -8 0 -9 14 -65 14 -74 0 -5 -7 -8
-7 -8 0 0 6 -16 11 -35 11 -19 0 -35 -5 -35 -11 0 -7 -3 -7 -8 0 -9 14 -65 14
-74 0 -5 -7 -8 -7 -8 0 0 6 -16 11 -35 11 -19 0 -35 -5 -35 -11 0 -7 -3 -7 -8
0 -4 6 -20 11 -37 11 -16 0 -33 -5 -37 -11 -5 -7 -8 -7 -8 0 0 6 -16 11 -35
11 -19 0 -35 -5 -35 -11 0 -7 -3 -7 -8 0 -4 6 -20 11 -37 11 -16 0 -33 -5 -37
-11 -5 -7 -8 -7 -8 0 0 6 -16 11 -35 11 -19 0 -35 -5 -35 -11 0 -7 -3 -7 -8 0
-4 6 -20 11 -37 11 -16 0 -33 -5 -37 -11 -5 -6 -8 -6 -8 2 0 9 -7 10 -25 3
-14 -5 -27 -5 -30 -1 -4 8 -26 8 -45 1 -3 -1 -9 -1 -15 0 -38 8 -45 8 -45 -3
0 -8 -3 -8 -8 -2 -4 6 -16 11 -27 11 -11 0 -23 -5 -27 -11 -5 -7 -8 -7 -8 1 0
5 -11 10 -25 10 -14 0 -25 -5 -25 -10 0 -8 -3 -8 -8 -1 -4 6 -16 11 -27 11
-11 0 -23 -5 -27 -11 -5 -7 -8 -7 -8 1 0 13 -50 13 -50 0 0 -8 -3 -8 -8 -1 -4
6 -16 11 -27 11 -11 0 -23 -5 -27 -11 -5 -7 -8 -7 -8 1 0 5 -11 10 -25 10 -14
0 -25 -5 -25 -10 0 -8 -3 -8 -8 -1 -4 6 -16 11 -27 11 -11 0 -23 -5 -27 -11
-5 -7 -8 -7 -8 1 0 5 -11 10 -25 10 -14 0 -25 -5 -25 -10 0 -8 -3 -8 -8 -1 -9
14 -45 14 -54 0 -5 -7 -8 -7 -8 1 0 5 -11 10 -25 10 -14 0 -25 -5 -25 -10 0
-8 -3 -8 -8 -1 -4 6 -16 11 -27 11 -11 0 -23 -5 -27 -11 -5 -7 -8 -7 -8 1 0 5
-11 10 -25 10 -14 0 -25 -5 -25 -10 0 -8 -3 -8 -8 -1 -4 6 -16 11 -27 11 -11
0 -23 -5 -27 -11 -5 -7 -8 -7 -8 1 0 5 -11 10 -25 10 -14 0 -25 -5 -25 -10 0
-8 -3 -8 -8 -1 -4 6 -16 11 -27 11 -11 0 -23 -5 -27 -11 -5 -7 -8 -7 -8 1 0 5
-11 10 -25 10 -14 0 -25 -5 -25 -10 0 -8 -3 -8 -8 -1 -4 6 -16 11 -27 11 -11
0 -23 -5 -27 -11 -5 -7 -8 -7 -8 1 0 5 -11 10 -25 10 -14 0 -25 -5 -25 -10 0
-8 -3 -8 -8 -1 -9 14 -45 14 -54 0 -5 -7 -8 -7 -8 1 0 5 -11 10 -25 10 -14 0
-25 -5 -25 -10 0 -8 -3 -8 -8 -1 -9 14 -45 14 -54 0 -5 -7 -8 -7 -8 1 0 5 -11
10 -25 10 -14 0 -25 -5 -25 -10 0 -8 -3 -8 -8 -1 -4 6 -16 11 -27 11 -11 0
-23 -5 -27 -11 -5 -7 -8 -7 -8 1 0 5 -11 10 -25 10 -14 0 -25 -5 -25 -10 0 -8
-3 -8 -8 -1 -4 6 -16 11 -27 11 -11 0 -23 -5 -27 -11 -5 -7 -8 -7 -8 1 0 5
-11 10 -25 10 -14 0 -25 -5 -25 -10 0 -8 -3 -8 -8 -1 -4 6 -16 11 -27 11 -11
0 -23 -5 -27 -11 -5 -7 -8 -7 -8 1 0 5 -11 10 -25 10 -14 0 -25 -5 -25 -10 0
-8 -3 -8 -8 -1 -4 6 -16 11 -27 11 -11 0 -23 -5 -27 -11 -5 -7 -8 -7 -8 1 0 5
-11 10 -25 10 -14 0 -25 -5 -25 -10 0 -8 -3 -8 -8 -1 -9 14 -45 14 -54 0 -5
-7 -8 -7 -8 1 0 13 -50 13 -50 0 0 -8 -3 -8 -8 -1 -4 6 -20 11 -37 11 -16 0
-33 -5 -37 -11 -5 -7 -8 -7 -8 0 0 6 -16 11 -35 11 -19 0 -35 -5 -36 -11 -5
-62 -3 -105 6 -105 7 0 7 -3 0 -8 -14 -9 -13 -145 0 -154 7 -5 7 -8 0 -8 -6 0
-10 -88 -10 -242 0 -149 4 -247 10 -253 12 -12 30 -13 41 -3 4 4 13 3 21 -3
10 -9 13 -8 13 2 0 11 2 11 10 -1 8 -13 10 -13 10 0 0 10 3 11 12 2 7 -7 17
-8 29 -2 11 6 20 6 23 1 7 -10 25 -9 44 2 7 5 12 3 12 -3 0 -7 6 -8 17 -2 9 6
29 6 45 2 15 -5 28 -5 28 -1 0 3 9 7 20 7 11 0 20 -3 20 -7 0 -9 20 -6 37 4 6
4 14 3 17 -2 7 -11 25 -9 45 3 7 5 16 5 20 -1 7 -10 21 -11 38 0 6 4 14 3 17
-2 7 -10 25 -9 44 2 7 5 12 3 12 -3 0 -7 6 -8 18 -2 9 5 26 6 37 2 11 -4 26
-3 33 2 6 6 12 7 12 2 0 -11 51 -10 68 0 7 4 12 3 12 -2 0 -5 7 -9 15 -9 8 0
15 3 15 7 0 3 9 6 20 6 11 0 20 -3 20 -7 0 -9 20 -6 37 4 6 4 14 3 17 -2 7
-11 25 -9 45 3 7 5 16 5 20 -1 7 -10 21 -11 38 0 6 4 14 3 17 -2 7 -10 25 -9
44 2 7 5 12 3 12 -3 0 -7 6 -8 18 -2 9 5 26 6 37 2 11 -4 26 -3 33 2 6 6 12 7
12 2 0 -11 51 -10 68 0 7 4 12 3 12 -2 0 -5 7 -9 15 -9 8 0 15 4 15 8 0 4 12
4 28 0 15 -4 33 -6 40 -3 10 3 13 -21 12 -114 -1 -66 -1 -123 0 -129 1 -5 2
-13 1 -18 -5 -31 -3 -186 3 -195 4 -7 4 -12 -1 -12 -10 0 -9 -62 1 -78 4 -7 3
-12 -3 -12 -7 0 -7 -8 -1 -25 5 -14 6 -25 2 -25 -9 0 -6 -145 3 -159 3 -6 3
-11 -2 -11 -7 0 -9 -93 -2 -110 1 -3 1 -8 0 -13 -5 -31 -3 -186 3 -195 4 -7 4
-12 -1 -12 -10 0 -9 -62 1 -78 4 -7 3 -12 -3 -12 -7 0 -7 -8 -1 -25 5 -14 6
-25 2 -25 -9 0 -6 -145 3 -159 3 -6 3 -11 -2 -11 -7 0 -9 -93 -2 -110 1 -3 1
-8 0 -13 -5 -31 -3 -186 3 -195 4 -7 4 -12 -1 -12 -10 0 -9 -62 1 -78 4 -7 3
-12 -3 -12 -7 0 -7 -8 -1 -25 5 -14 6 -25 2 -25 -9 0 -6 -145 3 -159 3 -6 3
-11 -2 -11 -7 0 -9 -93 -2 -110 1 -3 1 -8 0 -13 -5 -31 -3 -186 3 -195 4 -7 4
-12 -1 -12 -10 0 -9 -62 1 -78 4 -7 3 -12 -3 -12 -7 0 -7 -8 -1 -25 5 -14 6
-25 2 -25 -9 0 -6 -145 3 -159 3 -6 3 -11 -2 -11 -7 0 -9 -93 -2 -110 1 -3 1
-8 0 -13 -5 -31 -3 -186 3 -195 4 -7 3 -12 -2 -12 -10 0 -9 -30 2 -48 4 -7 2
-12 -4 -12 -8 0 -8 -6 0 -20 6 -11 7 -20 3 -20 -10 0 -9 -63 1 -78 4 -7 2 -12
-5 -12 -8 0 -8 -4 1 -15 9 -11 9 -15 1 -15 -9 0 -9 -5 -1 -20 6 -11 7 -20 3
-20 -9 0 -9 -61 -1 -76 3 -5 2 -18 -2 -29 -4 -11 -5 -27 -3 -35 4 -13 366 -15
3324 -15 1825 0 3319 4 3319 8 0 5 5 5 11 1 16 -10 149 -11 149 -1 0 5 5 5 12
1 15 -9 242 -9 257 0 6 4 11 3 11 -1 0 -7 72 -9 123 -4 4 1 3 10 -3 21 -8 15
-8 20 2 20 10 0 10 2 1 8 -7 4 -9 13 -4 20 4 7 5 33 1 57 -5 30 -3 45 4 45 6
0 4 5 -4 10 -8 5 -10 10 -5 10 10 0 10 100 0 128 -2 6 1 12 8 12 8 0 6 4 -3
10 -8 5 -10 10 -5 10 10 0 10 100 0 128 -2 6 1 12 8 12 8 0 6 4 -3 10 -8 5
-10 10 -5 10 10 0 10 100 0 128 -2 6 1 12 8 12 8 0 6 4 -3 10 -8 5 -10 10 -5
10 10 0 10 100 0 128 -2 6 1 12 8 12 8 0 6 4 -3 10 -8 5 -10 10 -5 10 10 0 10
100 0 128 -2 6 1 12 8 12 8 0 6 4 -3 10 -8 5 -10 10 -5 10 10 0 10 100 0 128
-2 6 1 12 8 12 8 0 6 4 -3 10 -8 5 -10 10 -5 10 10 0 10 100 0 128 -2 6 1 12
8 12 8 0 6 4 -3 10 -8 5 -10 10 -5 10 10 0 10 100 0 128 -2 6 1 12 8 12 8 0 6
4 -3 10 -8 5 -10 10 -5 10 10 0 10 100 0 128 -2 6 1 12 8 12 8 0 6 4 -3 10 -8
5 -10 10 -5 10 10 0 10 100 0 128 -2 6 1 12 8 12 8 0 6 4 -3 10 -8 5 -10 10
-5 10 10 0 10 100 0 128 -2 6 1 12 8 12 8 0 6 4 -3 10 -8 5 -10 10 -5 10 10 0
10 100 0 128 -2 6 1 12 8 12 8 0 6 4 -3 10 -8 5 -10 10 -5 10 10 0 10 100 0
128 -2 6 1 12 8 12 8 0 6 4 -3 10 -8 5 -10 10 -5 10 10 0 10 100 0 128 -2 6 1
12 8 12 8 0 6 4 -3 10 -8 5 -10 10 -5 10 10 0 10 100 0 128 -2 6 1 12 8 12 8
0 6 4 -3 10 -8 5 -10 10 -5 10 10 0 10 100 0 128 -2 6 1 12 8 12 8 0 6 4 -3
10 -8 5 -10 10 -5 10 10 0 10 100 0 128 -2 6 1 12 8 12 8 0 6 4 -3 10 -8 5
-10 10 -5 10 10 0 10 100 0 128 -2 6 1 12 8 12 8 0 6 4 -3 10 -8 5 -10 10 -5
10 10 0 10 100 0 128 -2 6 1 12 8 12 8 0 6 4 -3 10 -8 5 -10 10 -5 10 10 0 10
100 0 128 -2 6 1 12 8 12 8 0 6 4 -3 10 -8 5 -10 10 -5 10 10 0 10 100 0 128
-2 6 1 12 8 12 8 0 6 4 -3 10 -8 5 -10 10 -5 10 10 0 10 100 0 128 -2 6 1 12
8 12 8 0 6 4 -3 10 -8 5 -10 10 -5 10 10 0 10 100 0 128 -2 6 1 12 8 12 8 0 6
4 -3 10 -8 5 -10 10 -5 10 10 0 10 100 0 128 -2 6 1 12 8 12 8 0 6 4 -3 10 -8
5 -10 10 -5 10 10 0 10 100 0 128 -2 6 1 12 8 12 8 0 6 4 -3 10 -8 5 -10 10
-5 10 10 0 10 100 0 128 -2 6 1 12 8 12 8 0 6 4 -3 10 -8 5 -10 10 -5 10 10 0
10 100 0 128 -2 6 1 12 8 12 8 0 6 4 -3 10 -8 5 -10 10 -5 10 10 0 10 100 0
128 -2 6 1 12 8 12 8 0 6 4 -3 10 -8 5 -10 10 -5 10 10 0 10 100 0 128 -2 6 1
12 8 12 8 0 6 4 -3 10 -8 5 -10 10 -5 10 10 0 10 100 0 128 -2 6 1 12 8 12 8
0 6 4 -3 10 -8 5 -10 10 -5 10 10 0 10 100 0 128 -2 6 1 12 8 12 8 0 6 4 -3
10 -8 5 -10 10 -5 10 10 0 10 100 0 128 -2 6 1 12 8 12 8 0 6 4 -3 10 -8 5
-10 10 -5 10 10 0 10 100 0 128 -2 6 1 12 8 12 8 0 6 4 -3 10 -8 5 -10 10 -5
10 10 0 10 100 0 128 -2 6 1 12 8 12 8 0 6 4 -3 10 -8 5 -10 10 -5 10 10 0 10
100 0 128 -2 6 1 12 8 12 8 0 6 4 -3 10 -8 5 -10 10 -5 10 10 0 10 100 0 128
-2 6 1 12 8 12 8 0 6 4 -3 10 -8 5 -10 10 -5 10 10 0 10 100 0 128 -2 6 1 12
8 12 8 0 6 4 -3 10 -8 5 -10 10 -5 10 10 0 10 100 0 128 -2 6 1 12 8 12 8 0 6
4 -3 10 -8 5 -10 10 -5 10 10 0 10 100 0 128 -2 6 1 12 8 12 8 0 6 4 -3 10 -8
5 -10 10 -5 10 10 0 10 100 0 128 -2 6 1 12 8 12 8 0 6 4 -3 10 -8 5 -10 10
-5 10 10 0 10 100 0 128 -2 6 1 12 8 12 8 0 6 4 -3 10 -8 5 -10 10 -5 10 10 0
10 100 0 128 -2 6 1 12 8 12 8 0 6 4 -3 10 -8 5 -10 10 -5 10 10 0 10 100 0
128 -2 6 1 12 8 12 8 0 6 4 -3 10 -8 5 -10 10 -5 10 10 0 10 100 0 128 -2 6 1
12 8 12 8 0 6 4 -3 10 -8 5 -10 10 -5 10 10 0 10 100 0 128 -2 6 1 12 8 12 8
0 6 4 -3 10 -8 5 -10 10 -5 10 10 0 10 100 0 128 -2 6 1 12 8 12 8 0 6 4 -3
10 -8 5 -10 10 -5 10 10 0 10 100 0 128 -2 6 1 12 8 12 8 0 6 4 -3 10 -8 5
-10 10 -5 10 10 0 10 100 0 128 -2 6 1 12 8 12 8 0 6 4 -3 10 -8 5 -10 10 -5
10 10 0 10 100 0 128 -2 6 1 12 8 12 8 0 6 4 -3 10 -8 5 -10 10 -5 10 10 0 10
100 0 128 -2 6 1 12 8 12 8 0 6 4 -3 10 -8 5 -10 10 -5 10 10 0 10 100 0 128
-2 6 1 12 8 12 8 0 6 4 -3 10 -8 5 -10 10 -5 10 10 0 10 100 0 128 -2 6 1 12
8 12 8 0 6 4 -3 10 -8 5 -10 10 -5 10 10 0 10 100 0 128 -2 6 1 12 8 12 8 0 6
4 -3 10 -8 5 -10 10 -5 10 10 0 10 100 0 128 -2 6 1 12 8 12 8 0 6 4 -3 10 -8
5 -10 10 -4 10 14 0 13 32 -1 42 -6 5 -6 8 1 8 6 0 9 13 6 30 l-4 30 -10204 0
-10204 0 0 -10155z"/>
<path d="M9516 19903 c-3 -4 -28 -8 -54 -10 -101 -6 -128 -9 -140 -17 -7 -4
-12 -2 -12 6 0 8 -3 9 -8 3 -8 -12 -20 -15 -76 -19 -22 -2 -41 -5 -41 -6 0 -1
-13 -4 -30 -6 -16 -3 -34 -9 -40 -14 -6 -5 -21 -7 -33 -3 -12 3 -22 1 -22 -4
0 -5 -8 -9 -17 -10 -10 0 -29 -4 -43 -8 -14 -4 -31 -7 -37 -7 -7 -1 -13 -4
-13 -8 0 -5 -18 -9 -57 -12 -7 -1 -13 -5 -13 -10 0 -4 -3 -7 -7 -7 -26 4 -43
-2 -37 -13 4 -7 4 -10 -1 -6 -4 4 -22 1 -40 -7 -19 -7 -36 -11 -39 -7 -3 3 -6
0 -6 -7 0 -7 -4 -10 -9 -6 -5 3 -17 -3 -27 -12 -10 -10 -18 -16 -18 -14 -2 9
-76 -21 -76 -31 0 -6 -3 -8 -7 -5 -3 4 -15 0 -25 -10 -10 -9 -18 -13 -18 -9 0
3 -18 -5 -39 -18 -21 -14 -42 -22 -45 -19 -3 4 -6 1 -6 -5 0 -7 -7 -12 -15
-12 -8 0 -15 -4 -15 -10 0 -5 -11 -12 -24 -16 -14 -3 -27 -12 -30 -20 -3 -8
-12 -14 -21 -14 -8 0 -15 -4 -15 -10 0 -5 -6 -10 -13 -10 -8 0 -23 -8 -35 -17
-11 -10 -33 -27 -48 -38 -15 -11 -43 -32 -62 -47 -19 -16 -39 -28 -44 -28 -5
0 -6 -4 -3 -10 3 -5 1 -10 -4 -10 -6 0 -26 -15 -45 -34 -20 -18 -38 -31 -41
-28 -3 3 -5 1 -5 -5 0 -5 -9 -20 -20 -33 -11 -13 -20 -20 -20 -16 0 4 -17 -13
-37 -38 -21 -24 -44 -45 -51 -45 -7 -1 -11 -5 -8 -9 3 -5 -8 -22 -24 -37 -17
-16 -30 -35 -30 -42 0 -7 -7 -13 -16 -13 -8 0 -12 -4 -9 -10 3 -5 1 -10 -4
-10 -6 0 -11 -6 -11 -14 0 -8 -7 -17 -16 -20 -9 -4 -14 -9 -11 -12 9 -9 -17
-33 -28 -26 -5 3 -7 2 -3 -2 5 -6 -15 -45 -49 -92 -8 -10 -14 -21 -56 -93 -32
-57 -85 -165 -89 -181 -2 -8 -9 -21 -15 -28 -7 -7 -13 -22 -13 -33 0 -10 -4
-19 -10 -19 -5 0 -10 -11 -10 -24 0 -14 -5 -28 -10 -31 -6 -4 -8 -11 -5 -16 4
-5 1 -9 -5 -9 -6 0 -9 -4 -6 -8 3 -5 -1 -20 -8 -33 -7 -14 -12 -33 -10 -42 1
-9 -2 -19 -7 -23 -5 -3 -9 -15 -9 -28 0 -12 -3 -26 -7 -30 -4 -4 -9 -19 -11
-34 -2 -15 -6 -29 -10 -32 -4 -3 -8 -16 -8 -30 -1 -14 -2 -35 -3 -48 -1 -14
-5 -21 -12 -16 -8 4 -8 0 0 -15 7 -11 8 -21 2 -21 -5 0 -8 -16 -7 -35 1 -19
-1 -35 -5 -35 -3 0 -5 -10 -4 -22 1 -13 -2 -33 -6 -45 -5 -13 -5 -23 0 -23 4
0 8 -7 8 -15 0 -8 -4 -15 -8 -15 -5 0 -6 -13 -4 -30 2 -16 -1 -30 -6 -30 -6 0
-8 -4 -5 -8 3 -5 6 -68 7 -140 0 -73 5 -135 10 -138 5 -3 4 -14 -2 -26 -6 -12
-7 -23 -2 -27 5 -3 8 -23 8 -43 -1 -21 4 -38 10 -38 5 0 3 -5 -5 -10 -8 -5
-10 -10 -5 -10 6 0 11 -14 12 -31 1 -17 8 -38 15 -47 10 -12 10 -14 1 -8 -8 4
-13 1 -13 -8 0 -9 4 -16 9 -16 5 0 7 -13 6 -30 -1 -16 1 -30 6 -30 4 0 8 -8 8
-17 1 -32 7 -62 14 -69 4 -4 7 -15 7 -25 0 -9 6 -20 13 -22 9 -4 9 -6 -1 -6
-10 -1 -10 -5 0 -23 6 -13 13 -32 15 -42 2 -11 8 -25 13 -31 5 -7 7 -15 3 -19
-4 -4 -3 -10 2 -14 11 -8 36 -69 38 -89 0 -7 4 -13 9 -13 5 0 7 -4 3 -9 -3 -5
2 -17 11 -25 8 -9 12 -16 9 -16 -4 0 0 -11 9 -25 9 -13 16 -31 16 -40 0 -8 4
-15 8 -15 5 0 14 -16 22 -35 8 -19 18 -35 24 -35 5 0 6 -3 3 -6 -3 -4 2 -18
13 -32 11 -13 18 -28 15 -32 -3 -4 2 -10 10 -14 8 -3 15 -10 15 -16 0 -5 16
-32 35 -59 19 -26 35 -54 35 -60 0 -7 5 -9 10 -6 6 3 10 1 10 -4 0 -10 19 -36
48 -66 6 -8 12 -18 12 -23 0 -6 4 -12 9 -14 5 -2 24 -22 44 -45 19 -23 37 -39
41 -36 6 6 10 -12 7 -29 0 -5 4 -8 10 -8 6 0 40 -29 75 -65 35 -35 64 -62 64
-59 0 3 11 -5 24 -18 40 -40 76 -68 85 -68 5 0 11 -4 13 -8 2 -4 25 -23 53
-42 27 -19 54 -38 60 -43 37 -27 85 -55 85 -49 0 4 4 2 8 -4 4 -6 27 -21 52
-35 25 -13 48 -28 51 -32 3 -5 8 -8 10 -7 5 3 102 -42 109 -49 3 -3 12 -8 20
-10 46 -13 80 -27 80 -34 0 -5 5 -5 10 -2 6 3 10 1 10 -5 0 -6 4 -9 9 -6 5 3
23 -1 40 -10 17 -8 35 -13 41 -9 5 3 10 1 10 -4 0 -6 8 -11 18 -11 10 0 23 -5
30 -12 7 -7 12 -9 12 -6 0 4 29 -2 64 -12 36 -10 67 -16 70 -12 3 3 6 0 6 -7
0 -8 7 -11 15 -7 8 3 15 0 15 -7 0 -8 4 -6 10 3 5 8 10 10 10 4 0 -6 11 -10
25 -9 14 2 25 0 25 -4 0 -4 15 -8 33 -9 47 -4 60 -7 76 -16 11 -7 12 -6 6 5
-7 11 -6 12 6 3 8 -6 22 -10 33 -8 10 1 29 -1 42 -6 15 -6 24 -5 28 3 3 9 5 9
5 0 1 -7 8 -10 18 -6 12 5 14 3 8 -8 -7 -12 -6 -12 7 -1 12 9 22 10 35 4 12
-7 25 -7 36 -1 11 7 17 7 17 0 0 -6 11 -6 30 -1 16 5 32 5 34 1 6 -9 89 -7
105 3 6 4 11 2 11 -4 0 -6 5 -8 11 -4 20 12 99 13 92 0 -4 -6 1 -5 10 2 9 8
25 11 37 7 11 -3 20 -2 20 3 0 4 15 8 33 7 17 -1 35 3 39 9 5 7 8 6 8 -3 0 -9
4 -10 13 -4 11 9 41 14 94 16 12 1 19 5 17 9 -3 5 8 6 25 3 17 -3 31 -1 31 4
0 5 11 8 25 6 14 -1 25 1 25 5 0 4 6 7 13 8 21 1 65 12 91 22 13 5 27 6 30 3
3 -4 6 -2 6 3 0 5 10 10 22 11 11 1 24 6 27 11 3 5 13 9 21 10 36 2 55 8 62
16 3 5 12 11 20 12 7 1 31 10 53 20 22 10 43 17 48 16 4 -1 7 3 7 8 0 6 6 10
14 10 7 0 44 17 82 38 38 22 85 47 104 58 19 10 37 21 40 25 3 3 22 15 43 28
20 12 37 27 37 32 0 6 5 7 10 4 6 -3 10 -1 10 5 0 6 4 9 9 5 6 -3 13 0 18 7 4
7 24 25 43 39 19 15 46 36 59 48 13 11 28 21 33 21 5 0 7 4 4 9 -3 4 6 13 20
20 14 6 22 16 19 21 -3 6 -2 10 4 10 10 0 111 96 111 106 0 2 14 18 30 34 17
16 30 32 30 35 0 4 30 42 56 69 5 6 13 19 17 29 3 9 11 17 17 17 6 0 9 4 6 9
-3 4 3 16 13 25 11 10 25 31 31 47 7 16 17 29 22 29 5 0 6 5 3 10 -3 6 -1 10
4 10 6 0 11 7 11 15 0 8 4 15 9 15 5 0 7 9 4 20 -3 11 -10 20 -15 20 -10 0
-88 58 -100 75 -5 7 -8 7 -8 0 0 -5 -7 -1 -15 9 -8 11 -15 17 -15 13 0 -5 -6
-3 -12 3 -56 46 -75 60 -85 60 -7 0 -13 4 -13 8 0 4 -18 19 -40 32 -22 14 -40
28 -40 33 0 4 -5 7 -10 7 -6 0 -20 9 -32 20 -12 10 -25 17 -30 14 -4 -3 -8 3
-8 12 0 10 -3 15 -6 11 -6 -6 -72 38 -86 58 -5 7 -8 7 -8 0 0 -5 -5 -2 -11 8
-5 9 -17 17 -24 17 -8 0 -15 5 -15 10 0 6 -7 10 -15 10 -8 0 -15 4 -15 8 0 7
-42 32 -53 32 -1 0 -11 -16 -21 -35 -11 -19 -24 -32 -30 -28 -6 3 -8 3 -4 -1
7 -8 -39 -81 -75 -121 -87 -96 -185 -193 -200 -198 -10 -4 -16 -11 -12 -16 3
-5 -4 -12 -15 -16 -11 -3 -20 -11 -20 -16 0 -5 -5 -9 -10 -9 -10 0 -19 -6 -53
-36 -7 -5 -20 -13 -29 -17 -10 -3 -18 -11 -18 -17 0 -5 -9 -10 -19 -10 -11 0
-21 -4 -23 -8 -4 -10 -120 -67 -130 -64 -5 1 -8 -3 -8 -9 0 -5 -4 -8 -9 -4 -5
3 -12 1 -16 -5 -3 -5 -15 -10 -26 -10 -10 0 -19 -4 -19 -10 0 -5 -7 -7 -15 -4
-8 4 -15 1 -15 -6 0 -6 -4 -9 -9 -5 -5 3 -12 1 -16 -4 -3 -6 -12 -8 -20 -4 -8
3 -15 0 -15 -7 0 -10 -3 -10 -15 0 -8 7 -15 8 -15 3 0 -10 -67 -27 -102 -26
-10 0 -18 -2 -18 -6 0 -7 -68 -12 -185 -14 -44 -1 -83 -6 -87 -12 -5 -6 -8 -6
-8 2 0 7 -9 10 -21 8 -11 -2 -31 0 -45 5 -13 5 -24 6 -24 1 0 -9 -27 -7 -52 3
-9 4 -21 5 -27 2 -5 -4 -12 -2 -15 3 -3 5 -22 10 -41 10 -55 2 -65 4 -65 10 0
6 -26 11 -67 14 -7 0 -13 4 -13 9 0 5 -4 6 -10 3 -5 -3 -10 -2 -10 3 0 6 -9 8
-20 5 -11 -3 -20 0 -20 6 0 6 -7 11 -15 11 -21 0 -139 50 -146 62 -3 5 -10 10
-15 10 -13 1 -38 11 -44 17 -3 4 -16 12 -30 19 -38 18 -63 35 -81 55 -9 9 -21
17 -27 17 -6 0 -27 16 -47 35 -19 20 -35 33 -35 31 0 -3 -10 5 -23 17 -13 12
-22 24 -21 27 1 3 -16 19 -37 35 -21 17 -38 35 -39 41 0 6 -10 20 -22 32 -31
28 -50 52 -43 52 4 0 0 7 -7 15 -29 32 -39 45 -33 45 3 0 -3 10 -15 22 -11 12
-20 27 -20 34 0 6 -7 17 -15 24 -9 7 -14 19 -11 27 3 8 -1 16 -9 19 -8 4 -15
11 -15 18 0 6 -7 24 -15 39 -8 15 -16 36 -17 45 -2 9 -7 20 -11 23 -5 3 -9 12
-10 20 -2 8 -7 20 -11 28 -6 9 -5 12 2 7 6 -4 5 5 -3 20 -8 15 -12 31 -9 36 3
4 1 8 -4 8 -5 0 -9 6 -10 13 -2 22 -7 42 -16 56 -7 10 -5 12 3 6 10 -6 11 -3
2 12 -5 11 -11 37 -13 57 -1 20 -7 36 -13 36 -5 0 -3 5 5 10 8 5 10 10 4 10
-6 0 -10 20 -9 48 0 26 -1 51 -4 56 -6 13 -7 216 0 216 3 0 5 21 4 48 -1 26 3
50 9 55 8 5 7 10 -2 16 -11 6 -10 11 3 25 9 9 11 16 5 16 -6 0 -8 5 -3 13 4 6
8 23 9 37 1 14 2 25 3 25 2 0 4 7 6 15 1 8 9 35 16 60 17 60 16 57 18 81 1 12
5 17 13 13 6 -4 8 -3 5 3 -4 6 2 26 12 46 10 20 14 34 7 30 -6 -3 -2 3 8 15
11 12 16 22 12 22 -3 0 5 18 19 40 14 22 23 40 20 40 -3 0 5 15 17 33 13 17
30 44 38 60 7 15 17 27 22 27 4 0 8 6 8 13 0 7 9 19 19 27 11 7 18 17 16 20
-5 8 156 173 204 210 17 14 44 35 59 47 15 13 33 23 40 23 7 0 15 7 18 15 4 8
10 12 15 9 5 -3 9 0 9 5 0 6 6 11 14 11 7 0 19 7 26 15 6 8 15 14 18 13 9 -2
46 14 52 22 9 11 90 40 90 32 0 -4 4 -1 9 6 4 7 17 15 27 17 10 2 20 4 22 5 1
2 7 4 12 5 6 1 12 4 15 5 3 1 8 3 13 4 4 2 27 8 51 15 23 7 50 10 58 7 8 -3
11 -1 8 4 -3 6 2 10 12 11 10 0 27 2 38 5 43 8 134 16 220 17 51 0 93 5 97 11
5 8 8 8 8 0 0 -10 66 -18 138 -16 12 0 22 -5 22 -10 0 -6 7 -7 16 -4 8 3 25 1
36 -5 15 -8 18 -8 14 0 -5 7 -1 9 8 5 9 -3 13 -11 9 -18 -4 -7 -1 -7 9 1 8 7
18 10 22 6 3 -4 13 -8 21 -9 27 -4 90 -27 104 -38 12 -9 13 -8 6 4 -6 12 -5
13 6 3 7 -7 21 -13 31 -13 10 0 18 -4 18 -10 0 -5 7 -10 15 -10 9 0 27 -7 40
-16 14 -9 25 -12 25 -8 0 5 4 4 8 -1 4 -6 28 -21 55 -34 26 -13 47 -27 47 -30
0 -3 13 -12 28 -19 16 -6 38 -21 50 -32 12 -11 26 -20 31 -20 6 0 15 -8 20
-17 6 -10 11 -15 11 -11 0 4 30 -22 66 -58 36 -35 70 -64 75 -64 5 0 9 -7 9
-15 0 -8 4 -15 9 -15 5 0 13 -9 16 -20 3 -11 13 -20 21 -20 8 0 14 -5 14 -11
0 -7 10 -21 23 -33 13 -12 32 -37 43 -56 10 -19 25 -39 32 -43 6 -4 12 -14 12
-21 0 -8 7 -16 15 -20 8 -3 14 -11 13 -17 -5 -22 33 -17 59 7 14 13 32 24 40
24 8 0 12 4 9 8 -2 4 18 20 45 35 27 16 49 33 49 38 0 6 5 7 10 4 6 -3 10 -2
10 3 0 5 12 15 28 23 15 8 34 20 42 28 8 8 38 29 67 48 28 18 64 44 79 58 14
13 31 22 37 18 6 -3 7 -1 3 5 -6 11 6 16 27 13 4 0 7 3 7 8 0 5 25 25 55 44
30 19 52 37 48 41 -3 3 1 6 10 6 9 0 17 5 17 11 0 5 4 8 9 5 24 -15 8 57 -19
84 -15 15 -50 71 -50 80 0 5 -4 10 -10 10 -5 0 -10 5 -10 10 0 6 -8 19 -17 29
-30 33 -43 50 -43 56 0 6 -12 20 -94 108 -24 26 -43 47 -41 47 2 0 -7 11 -21
25 -14 14 -29 25 -34 25 -5 0 -12 9 -15 20 -3 11 -11 20 -17 20 -6 0 -21 12
-34 28 -13 15 -24 23 -24 19 0 -4 -11 3 -23 17 -13 14 -27 23 -30 19 -4 -3 -7
1 -7 11 0 9 -4 14 -10 11 -5 -3 -10 -2 -10 2 0 5 -13 17 -30 26 -16 10 -35 23
-42 30 -21 20 -72 52 -80 49 -5 -1 -8 2 -8 8 0 5 -17 17 -37 27 -21 9 -40 19
-43 22 -3 4 -18 13 -35 21 -16 8 -38 21 -49 30 -10 8 -20 14 -22 12 -2 -1 -17
4 -33 12 -16 9 -31 12 -35 9 -3 -4 -6 -1 -6 5 0 7 -6 12 -12 12 -7 1 -31 9
-53 20 -22 10 -43 16 -47 14 -5 -3 -8 -1 -8 3 0 5 -21 15 -47 22 -27 8 -52 16
-58 20 -5 3 -19 7 -30 8 -10 2 -23 9 -27 16 -6 9 -8 9 -8 0 0 -9 -10 -8 -36 3
-20 8 -38 13 -41 10 -3 -3 -17 1 -32 8 -14 7 -34 11 -43 9 -10 -3 -18 -1 -18
4 0 4 -19 9 -41 10 -23 0 -46 6 -52 12 -7 7 -16 7 -29 0 -10 -5 -18 -6 -18 -1
0 4 -24 9 -52 10 -58 2 -93 8 -107 17 -5 3 -12 1 -16 -4 -3 -6 -11 -8 -18 -6
-23 9 -117 11 -117 2 0 -4 -4 -5 -10 -2 -15 9 -90 12 -90 2 0 -4 -8 -3 -19 2
-10 6 -21 7 -25 4z"/>
<path d="M5810 19820 c-15 -9 -21 -60 -7 -60 4 0 5 -5 1 -12 -10 -16 -11 -148
-1 -148 5 0 5 -5 1 -12 -10 -16 -11 -148 -1 -148 5 0 5 -5 1 -12 -10 -16 -11
-148 -1 -148 5 0 5 -5 1 -12 -10 -16 -11 -278 -1 -278 5 0 5 -5 1 -12 -11 -17
-13 -88 -3 -88 5 0 6 -6 3 -14 -9 -24 -10 -126 -1 -126 4 0 5 -5 1 -12 -11
-17 -13 -88 -3 -88 5 0 6 -6 3 -14 -9 -24 -10 -126 -1 -126 4 0 5 -5 1 -12
-11 -17 -13 -88 -3 -88 5 0 6 -6 3 -14 -9 -24 -10 -126 -1 -126 4 0 5 -5 1
-12 -11 -17 -13 -88 -3 -88 5 0 6 -6 3 -14 -9 -24 -10 -126 -1 -126 4 0 5 -5
1 -12 -11 -18 -13 -88 -2 -88 5 0 6 -4 3 -10 -10 -16 -12 -80 -3 -80 5 0 6 -5
2 -12 -10 -16 -11 -148 -1 -148 5 0 5 -5 1 -12 -10 -16 -11 -148 -1 -148 5 0
5 -5 1 -12 -10 -16 -11 -148 -1 -148 5 0 5 -5 1 -12 -10 -16 -11 -198 -1 -198
5 0 5 -5 1 -12 -11 -17 -13 -88 -3 -88 5 0 6 -6 3 -14 -9 -24 -10 -126 -1
-126 4 0 5 -5 1 -12 -11 -17 -13 -88 -3 -88 5 0 6 -6 3 -14 -9 -24 -10 -126
-1 -126 4 0 5 -6 1 -12 -11 -17 -11 -148 -1 -148 5 0 5 -5 1 -12 -11 -17 -13
-88 -3 -88 5 0 6 -6 3 -14 -9 -24 -10 -126 -1 -126 4 0 5 -5 1 -12 -11 -17
-13 -88 -3 -88 5 0 6 -6 3 -14 -9 -24 -10 -126 -1 -126 4 0 5 -5 1 -12 -10
-16 -11 -98 -1 -98 5 0 5 -5 1 -12 -10 -16 -11 -148 -1 -148 5 0 5 -5 1 -12
-11 -18 -10 -139 1 -147 13 -10 861 -8 871 2 4 4 3 7 -2 7 -5 0 -8 827 -6
2087 1 1149 0 2098 -3 2110 -5 21 -19 24 -42 10 -7 -5 -13 -4 -13 0 0 5 -11 9
-25 9 -14 0 -25 -5 -25 -10 0 -8 -3 -8 -8 -1 -4 6 -16 11 -27 11 -11 0 -23 -5
-27 -11 -5 -7 -8 -7 -8 0 0 6 -16 11 -35 11 -19 0 -35 -5 -35 -11 0 -7 -3 -7
-8 0 -4 6 -16 11 -27 11 -11 0 -23 -5 -27 -11 -5 -7 -8 -7 -8 1 0 5 -11 10
-25 10 -14 0 -25 -5 -25 -10 0 -8 -3 -8 -8 -1 -4 6 -16 11 -27 11 -11 0 -23
-5 -27 -11 -5 -7 -8 -7 -8 1 0 5 -11 10 -25 10 -14 0 -25 -5 -25 -10 0 -8 -3
-8 -8 -1 -4 6 -16 11 -27 11 -11 0 -23 -5 -27 -11 -5 -7 -8 -7 -8 1 0 5 -11
10 -25 10 -14 0 -25 -5 -25 -10 0 -8 -3 -8 -8 -1 -4 6 -16 11 -27 11 -11 0
-23 -5 -27 -11 -5 -7 -8 -6 -8 1 0 12 -38 13 -57 1 -6 -4 -14 -3 -17 1 -6 10
-52 10 -62 -1 -4 -4 -12 -3 -18 3 -7 5 -18 5 -26 0z"/>
<path d="M11455 13230 c-3 -5 -16 -8 -28 -6 -12 2 -30 0 -39 -5 -10 -6 -19 -5
-23 1 -4 6 -12 7 -18 3 -13 -8 -16 -8 -87 -18 -25 -3 -61 -9 -80 -12 -19 -3
-41 -6 -47 -6 -7 0 -13 -5 -13 -11 0 -6 -5 -4 -10 4 -5 8 -10 10 -10 5 0 -6
-8 -12 -17 -13 -21 -2 -57 -10 -60 -12 -2 -2 -6 -3 -10 -4 -36 -7 -110 -31
-120 -38 -7 -6 -17 -7 -23 -3 -5 3 -10 2 -10 -4 0 -6 -7 -8 -15 -5 -8 4 -15 1
-15 -4 0 -6 -9 -9 -20 -7 -11 2 -20 0 -20 -5 0 -5 -12 -13 -27 -16 -16 -4 -55
-20 -87 -36 -33 -15 -65 -28 -72 -28 -7 0 -14 -3 -16 -7 -3 -9 -74 -43 -84
-42 -4 0 -10 -3 -13 -8 -3 -5 -32 -24 -63 -42 -32 -18 -58 -37 -58 -42 0 -6
-4 -8 -9 -4 -5 3 -16 -2 -24 -10 -9 -8 -18 -15 -22 -15 -4 0 -13 -6 -20 -12
-8 -7 -30 -24 -50 -38 -20 -14 -50 -37 -66 -52 -16 -16 -34 -28 -39 -28 -6 0
-15 -9 -22 -20 -7 -11 -18 -20 -25 -20 -7 0 -12 -5 -10 -12 1 -7 -3 -12 -8
-13 -14 0 -215 -207 -215 -220 0 -5 -16 -25 -60 -74 -16 -17 -25 -31 -22 -31
4 0 -2 -7 -13 -16 -11 -8 -18 -17 -15 -19 3 -2 -5 -15 -17 -29 -13 -15 -23
-29 -23 -32 0 -3 -13 -24 -29 -47 -15 -23 -31 -52 -35 -64 -4 -13 -12 -23 -18
-23 -6 0 -8 -3 -5 -6 4 -4 -2 -19 -12 -33 -10 -14 -22 -37 -26 -51 -4 -14 -12
-28 -17 -31 -5 -3 -10 -13 -12 -21 -1 -9 -8 -24 -16 -34 -13 -16 -13 -17 0 -9
9 5 8 0 -4 -13 -11 -12 -16 -22 -11 -22 4 0 2 -7 -5 -15 -7 -8 -9 -15 -4 -15
5 0 3 -4 -4 -9 -7 -4 -14 -18 -15 -29 -1 -12 -5 -22 -9 -22 -4 0 -7 -3 -7 -7
4 -25 -2 -53 -10 -48 -6 3 -10 -3 -10 -12 0 -22 -5 -45 -12 -58 -4 -5 -5 -18
-4 -27 2 -10 0 -18 -4 -18 -4 0 -8 -6 -8 -12 -3 -36 -29 -134 -38 -140 -6 -5
-5 -8 3 -8 8 0 10 -5 5 -12 -4 -7 -8 -21 -9 -30 -1 -10 -2 -19 -3 -20 -3 -4
-13 -108 -12 -130 0 -10 -6 -18 -12 -18 -7 0 -6 -4 3 -10 13 -9 13 -11 0 -20
-13 -9 -13 -10 0 -10 9 0 11 -3 5 -8 -12 -9 -14 -302 -1 -302 5 0 3 -6 -3 -14
-7 -8 -8 -17 -3 -20 5 -3 9 -26 8 -51 -1 -25 1 -45 4 -45 3 0 7 -15 8 -32 3
-40 9 -83 12 -83 1 0 3 -9 5 -20 1 -11 5 -31 8 -45 3 -14 8 -43 12 -65 4 -22
10 -44 14 -50 6 -10 10 -28 13 -57 1 -10 6 -18 11 -18 5 0 7 -9 4 -20 -3 -11
-2 -20 3 -20 4 0 11 -7 14 -16 4 -10 2 -13 -7 -8 -6 4 -5 -1 4 -12 9 -10 14
-25 12 -31 -3 -7 -1 -13 4 -13 5 0 15 -20 22 -45 7 -25 17 -45 22 -45 5 0 6
-7 3 -15 -4 -8 -1 -15 7 -15 7 0 9 -3 6 -7 -4 -3 1 -15 10 -26 10 -10 17 -22
17 -26 -1 -3 7 -23 17 -43 11 -21 16 -38 12 -38 -4 0 2 -7 13 -15 10 -8 15
-15 10 -15 -6 0 -1 -7 10 -15 10 -8 15 -15 9 -15 -7 0 -7 -3 0 -8 12 -9 44
-61 52 -84 3 -10 9 -18 14 -18 5 0 9 -4 9 -10 0 -5 9 -20 20 -32 10 -13 19
-26 19 -31 1 -14 26 -35 35 -29 5 3 6 1 3 -5 -4 -6 6 -24 21 -41 15 -17 43
-50 62 -73 19 -24 61 -69 92 -100 31 -31 54 -60 51 -63 -4 -3 1 -6 11 -6 9 0
19 -7 22 -15 3 -8 14 -17 24 -20 11 -3 22 -15 26 -27 5 -16 8 -18 15 -7 7 11
9 10 9 -3 0 -10 5 -18 10 -18 6 0 18 -8 28 -17 10 -10 31 -27 46 -38 16 -11
40 -30 54 -42 13 -13 28 -20 32 -18 5 3 10 1 12 -4 4 -11 164 -111 178 -111 5
0 10 -5 10 -12 0 -6 3 -8 6 -5 4 3 18 -3 32 -13 13 -11 33 -20 43 -20 11 0 19
-5 19 -11 0 -5 4 -8 9 -5 5 4 11 3 13 -2 1 -4 41 -22 88 -40 47 -18 94 -37
105 -43 11 -5 30 -11 43 -12 12 0 22 -5 22 -9 0 -4 10 -8 23 -8 13 0 27 -3 31
-7 3 -4 13 -8 21 -9 7 -1 29 -7 47 -12 18 -6 47 -13 63 -16 17 -3 44 -8 60
-12 17 -4 40 -7 53 -7 12 -1 22 -4 22 -8 0 -4 20 -6 45 -5 25 1 45 -2 45 -7 0
-4 5 -5 11 -1 6 3 15 0 20 -7 7 -11 9 -11 9 -1 0 10 5 10 20 2 15 -8 20 -8 20
2 0 8 3 9 8 3 4 -6 52 -12 107 -14 55 -1 103 -5 107 -7 3 -2 9 0 13 5 3 7 15
7 29 1 13 -5 26 -7 28 -5 2 2 43 6 90 9 48 2 92 7 97 11 6 3 11 1 11 -6 0 -8
4 -8 13 -2 6 5 32 11 57 12 24 1 48 7 52 14 6 9 8 8 8 -3 0 -9 3 -11 8 -5 6 9
28 14 90 18 12 0 22 4 22 7 0 3 10 7 23 8 61 6 82 10 80 18 -1 5 11 10 25 11
51 4 92 15 92 25 0 6 9 8 20 5 11 -3 20 -1 20 5 0 5 5 6 10 3 6 -3 10 -1 10 5
0 6 5 8 11 4 6 -3 14 -2 18 4 4 7 18 14 31 16 14 2 27 5 30 6 3 2 8 2 13 1 4
0 7 4 7 10 0 5 5 7 10 4 6 -3 10 -1 10 4 0 6 3 10 8 10 14 -3 72 23 72 32 0 5
5 9 11 9 5 0 7 -6 4 -12 -4 -7 -1 -6 7 2 7 8 38 27 68 43 84 42 134 70 148 83
6 7 21 16 32 19 11 3 20 11 20 16 0 5 7 9 15 9 8 0 15 5 15 10 0 6 5 10 10 10
6 0 16 5 23 10 55 47 74 61 90 66 9 3 15 10 12 15 -4 5 -1 9 5 9 6 0 27 15 47
32 64 56 233 227 233 236 0 4 8 14 18 23 9 8 28 30 42 48 14 19 32 41 41 51 8
9 18 24 22 33 3 9 11 17 17 17 6 0 9 4 6 9 -3 5 5 20 18 34 13 14 22 28 20 30
-3 2 2 10 11 17 8 7 15 19 15 26 0 8 5 14 10 14 6 0 10 6 10 14 0 7 7 19 15
26 8 7 12 16 9 21 -3 5 0 9 6 9 6 0 9 4 5 9 -3 6 2 14 11 19 9 5 16 13 16 18
0 17 42 104 50 104 4 0 5 7 2 15 -4 8 -2 15 4 15 9 0 27 55 23 73 -1 4 5 10
13 13 8 3 12 12 9 20 -3 8 0 14 7 14 6 0 9 4 6 9 -3 5 1 25 9 44 8 19 11 37 8
41 -4 3 -2 6 4 6 5 0 10 6 11 13 0 11 3 22 18 80 3 12 7 29 8 37 1 9 5 21 10
28 4 6 4 17 1 22 -3 6 -2 10 2 10 5 0 9 17 11 38 4 60 6 72 12 72 3 0 5 12 4
28 -1 15 4 33 10 41 8 11 8 13 -1 7 -14 -8 -18 6 -6 18 8 7 12 79 14 226 3
138 -2 213 -15 229 -8 11 -8 13 2 7 6 -4 12 -2 12 3 0 6 -6 11 -12 11 -9 0 -8
4 2 10 8 5 10 10 5 10 -6 0 -11 12 -12 28 -1 63 -8 122 -15 122 -3 0 -5 11 -3
25 1 14 -2 25 -7 25 -5 0 -8 6 -6 12 3 7 -1 32 -9 57 -7 24 -10 47 -8 51 3 5
1 11 -4 14 -4 3 -12 20 -16 38 -8 36 -11 45 -15 53 -1 3 -3 8 -5 13 -4 14 -17
48 -52 132 -19 47 -35 91 -36 98 0 6 -4 12 -9 12 -5 0 -6 5 -3 10 3 6 3 10 -2
10 -8 0 -36 54 -33 66 1 4 -2 10 -7 13 -6 3 -29 40 -54 81 -24 41 -47 77 -51
78 -5 2 -8 10 -8 18 0 8 -4 14 -10 14 -5 0 -10 7 -10 16 0 8 -4 12 -10 9 -5
-3 -10 0 -10 8 0 8 -9 22 -20 32 -11 10 -20 22 -20 27 0 5 -11 21 -24 35 -14
15 -22 31 -19 37 3 6 3 8 -2 4 -10 -9 -65 51 -65 72 0 13 -1 13 -10 0 -8 -12
-10 -13 -10 -1 0 16 -171 185 -195 195 -8 3 -15 10 -15 16 0 5 -4 10 -10 10
-5 0 -18 8 -28 18 -29 26 -62 52 -68 52 -2 0 -10 5 -17 10 -49 41 -62 50 -75
50 -9 0 -12 3 -9 6 4 4 -11 16 -33 26 -22 11 -40 24 -40 30 0 5 -4 6 -10 3 -5
-3 -10 -1 -10 5 0 6 -4 8 -10 5 -5 -3 -10 -1 -10 5 0 6 -4 9 -9 6 -5 -3 -14 1
-21 9 -7 8 -16 13 -20 10 -4 -3 -11 2 -14 11 -3 8 -10 12 -16 9 -5 -3 -10 -1
-10 4 0 6 -7 11 -15 11 -8 0 -30 9 -49 19 -19 11 -37 17 -40 14 -3 -4 -6 -1
-6 5 0 7 -5 12 -11 12 -5 0 -31 10 -57 21 -25 12 -53 23 -62 24 -8 2 -17 4
-20 5 -3 1 -8 2 -12 1 -5 0 -8 4 -8 9 0 5 -3 9 -7 9 -5 -1 -10 -1 -13 1 -3 1
-16 3 -29 6 -14 2 -31 10 -40 17 -12 10 -13 9 -6 -3 7 -13 6 -13 -7 -2 -16 13
-56 24 -90 26 -10 0 -18 4 -18 8 0 4 -11 8 -23 8 -13 0 -27 3 -31 7 -4 4 -22
8 -39 8 -18 1 -37 4 -42 7 -6 3 -18 4 -27 3 -10 -2 -18 0 -18 4 0 4 -23 8 -52
9 -28 1 -57 7 -64 13 -8 7 -14 7 -19 -1 -4 -6 -12 -7 -18 -3 -7 4 -41 8 -77 8
-36 0 -68 5 -72 10 -5 6 -8 5 -8 -4 0 -11 -3 -11 -15 -1 -10 8 -15 9 -15 2 0
-6 -6 -9 -12 -7 -23 8 -88 12 -88 6 0 -11 -54 -7 -62 4 -5 6 -8 5 -8 -3 0 -9
-5 -10 -19 -2 -13 6 -22 7 -26 0z m51 -813 c4 -4 12 -3 18 1 17 11 226 10 226
-1 0 -5 7 -4 15 3 8 7 15 8 15 2 0 -5 18 -10 41 -10 22 -1 47 -6 55 -13 9 -8
14 -8 14 -1 0 8 12 7 38 -2 20 -7 43 -11 50 -9 6 3 12 -1 12 -7 0 -7 8 -10 20
-7 11 3 20 0 20 -6 0 -6 3 -7 7 -4 3 4 12 2 20 -4 7 -6 13 -8 13 -4 0 4 12 0
26 -10 15 -9 23 -12 19 -6 -3 6 9 3 28 -8 19 -11 38 -17 41 -14 3 4 6 0 6 -7
0 -7 3 -10 7 -7 3 4 15 0 25 -10 10 -9 18 -13 18 -9 0 4 10 1 23 -6 12 -7 26
-11 30 -10 5 1 6 -2 3 -7 -3 -5 9 -15 27 -22 17 -7 34 -15 37 -19 3 -3 31 -23
62 -44 32 -22 83 -63 114 -93 31 -29 61 -53 67 -53 6 0 8 -3 5 -6 -3 -3 8 -20
26 -39 35 -37 41 -46 76 -95 13 -19 30 -41 37 -48 6 -6 15 -21 18 -32 3 -11
11 -20 16 -20 5 0 8 -3 7 -7 -1 -5 5 -19 14 -33 9 -14 18 -32 20 -40 2 -8 9
-21 16 -28 7 -8 10 -18 6 -23 -3 -5 1 -12 10 -15 8 -3 12 -12 9 -20 -3 -8 0
-14 7 -14 6 0 9 -4 6 -8 -3 -5 2 -22 10 -38 9 -16 17 -38 19 -49 2 -11 11 -42
19 -69 9 -26 13 -52 10 -57 -3 -5 -1 -9 3 -9 5 0 9 -8 10 -17 2 -42 8 -73 13
-73 6 0 11 -94 14 -262 1 -71 -2 -128 -7 -128 -4 0 -3 -10 4 -21 8 -15 8 -19
0 -15 -7 5 -10 -1 -7 -16 2 -13 -1 -31 -6 -42 -7 -14 -7 -16 2 -11 9 6 9 3 1
-13 -6 -12 -11 -25 -10 -29 1 -4 0 -10 -1 -13 -1 -3 -3 -12 -5 -20 -2 -8 -6
-26 -9 -40 -3 -14 -7 -35 -10 -47 -4 -13 -8 -31 -10 -41 -2 -10 -11 -35 -20
-55 -8 -21 -16 -39 -16 -42 -4 -22 -23 -65 -29 -65 -4 0 -7 -10 -8 -22 -1 -11
-7 -24 -13 -28 -7 -4 -11 -11 -11 -16 2 -14 -32 -74 -42 -74 -4 0 -5 -4 -2
-10 3 -5 1 -10 -5 -10 -6 0 -9 -4 -5 -9 3 -5 -3 -16 -12 -23 -10 -7 -27 -30
-37 -50 -11 -20 -24 -35 -28 -32 -4 3 -8 0 -8 -7 0 -12 -16 -31 -101 -117 -56
-58 -117 -112 -126 -112 -7 0 -77 -53 -85 -65 -4 -5 -10 -6 -14 -2 -4 4 -14
-2 -21 -13 -8 -11 -18 -18 -23 -15 -5 3 -16 -3 -26 -12 -10 -10 -18 -16 -18
-15 -1 6 -60 -22 -67 -31 -3 -5 -9 -8 -13 -7 -4 1 -21 -4 -39 -11 -18 -6 -35
-11 -39 -10 -5 0 -8 -3 -8 -7 0 -4 -12 -9 -26 -10 -14 -1 -31 -5 -37 -9 -15
-9 -35 -14 -64 -16 -13 0 -23 -5 -23 -9 0 -4 -3 -7 -7 -6 -18 4 -124 -15 -128
-23 -3 -4 -16 -5 -28 -1 -26 9 -48 9 -62 1 -19 -11 -75 -8 -75 4 0 9 -2 9 -8
1 -9 -14 -43 -14 -61 0 -11 8 -13 8 -8 -1 8 -13 -49 -13 -70 0 -6 4 -14 3 -18
-3 -4 -6 -12 -7 -18 -3 -7 4 -28 8 -47 10 -19 1 -47 4 -62 7 -16 3 -40 8 -55
12 -38 7 -58 12 -58 14 0 1 -16 4 -35 7 -19 2 -36 9 -38 14 -2 5 -15 9 -28 9
-13 0 -24 5 -24 11 0 5 -4 8 -9 5 -7 -5 -73 23 -142 60 -14 7 -29 11 -33 7 -3
-3 -6 1 -6 10 0 10 -5 14 -15 11 -8 -4 -15 -1 -15 5 0 6 -7 11 -15 11 -8 0
-15 5 -15 10 0 6 -7 10 -15 10 -8 0 -15 5 -15 10 0 6 -6 10 -14 10 -8 0 -22
10 -30 22 -9 12 -16 19 -16 15 0 -10 -43 27 -122 105 -37 37 -68 72 -68 78 0
6 -4 9 -9 6 -4 -3 -13 6 -19 19 -7 14 -16 25 -22 25 -6 0 -8 5 -5 10 3 6 -1
13 -9 16 -9 3 -16 12 -16 18 0 7 -9 22 -20 33 -11 12 -21 27 -22 34 -2 7 -11
22 -20 33 -10 11 -18 28 -18 37 0 10 -7 22 -16 27 -9 5 -16 12 -15 15 0 4 -6
21 -14 39 -7 18 -11 36 -9 40 3 5 0 8 -6 8 -6 0 -8 5 -5 10 3 6 1 10 -4 10 -6
0 -11 11 -11 24 0 14 -4 28 -10 31 -5 3 -10 16 -10 29 0 12 -4 26 -10 32 -5 5
-10 24 -12 42 -1 17 -5 32 -8 32 -3 0 -6 8 -7 18 -1 9 -2 34 -4 54 -1 21 -5
36 -8 34 -3 -2 -7 17 -8 42 -3 78 -9 128 -18 142 -5 8 -4 11 3 6 12 -7 11 32
-2 52 -4 7 -2 12 6 12 9 0 9 3 -2 10 -8 5 -10 10 -4 10 14 0 13 42 -1 52 -6 5
-5 8 4 8 8 0 11 6 7 17 -4 9 -1 20 6 25 10 6 10 8 1 8 -7 0 -10 6 -8 13 2 6 6
33 9 59 2 26 7 52 11 58 3 5 0 10 -7 10 -9 0 -9 3 -2 8 15 10 25 42 13 42 -6
0 -4 7 5 15 8 9 13 22 10 30 -4 8 -1 15 6 15 10 0 10 3 0 15 -9 10 -9 15 -1
15 6 0 11 7 11 15 0 18 40 138 49 145 3 3 7 12 9 20 5 24 46 104 57 112 5 4 6
8 2 8 -5 0 7 23 27 50 20 28 36 57 36 66 0 8 5 12 10 9 6 -3 10 -1 10 5 0 6 5
16 10 23 39 46 50 61 50 69 0 5 5 6 10 3 6 -3 10 -1 10 5 0 6 32 42 70 80 39
38 70 67 70 63 0 -3 11 6 25 21 13 14 29 26 35 26 5 0 10 5 10 10 0 6 9 10 21
10 11 0 18 4 14 9 -3 5 5 13 17 17 12 3 28 13 36 20 7 8 20 14 28 14 8 0 14 5
14 10 0 6 6 10 14 10 8 0 22 7 30 16 9 8 16 13 16 9 0 -3 6 -3 13 2 6 4 14 8
17 9 3 0 19 7 35 14 17 7 33 14 38 15 4 2 9 4 12 5 3 1 10 4 15 5 6 1 12 4 15
5 3 1 8 3 13 4 4 1 17 7 28 14 12 6 23 9 26 7 2 -2 26 2 52 10 27 8 52 12 56
10 5 -3 11 -1 14 4 3 5 22 8 41 7 19 -1 35 2 35 7 0 4 4 6 8 3 4 -2 13 -1 20
3 14 8 59 7 68 -2z"/>
<path d="M23307 13228 c-7 -4 -8 -8 -4 -8 5 0 1 -7 -7 -16 -9 -8 -14 -20 -11
-25 4 -5 1 -9 -5 -9 -7 0 -10 -7 -6 -15 3 -8 2 -15 -3 -15 -9 0 -41 -70 -47
-100 -2 -8 -7 -16 -13 -18 -5 -2 -7 -10 -4 -18 3 -8 0 -14 -6 -14 -6 0 -11 -6
-11 -13 0 -8 -6 -27 -14 -43 -8 -16 -16 -36 -18 -44 -2 -8 -9 -21 -16 -28 -7
-8 -10 -18 -7 -23 4 -5 2 -9 -4 -9 -5 0 -12 -13 -16 -30 -4 -16 -11 -32 -16
-35 -5 -4 -9 -15 -9 -26 0 -10 -5 -19 -12 -19 -6 0 -8 -3 -5 -6 3 -4 1 -16 -5
-28 -7 -11 -11 -24 -10 -28 1 -5 -3 -8 -9 -8 -6 0 -9 -6 -6 -14 3 -8 -3 -23
-14 -35 -11 -11 -19 -22 -17 -23 1 -2 -1 -14 -5 -28 -3 -14 -6 -27 -6 -29 0
-2 -3 -7 -8 -10 -15 -11 -34 -62 -27 -73 4 -6 3 -8 -3 -5 -9 6 -39 -59 -35
-75 1 -5 -3 -8 -9 -8 -5 0 -7 -4 -4 -10 3 -5 2 -10 -2 -10 -7 0 -30 -47 -38
-80 -1 -3 -10 -23 -20 -45 -10 -22 -18 -43 -17 -47 1 -5 -3 -8 -9 -8 -6 0 -9
-7 -5 -15 3 -8 1 -15 -5 -15 -6 0 -8 -7 -5 -16 3 -8 2 -12 -4 -9 -9 6 -14 -8
-11 -27 0 -5 -4 -8 -10 -8 -5 0 -8 -4 -4 -9 3 -5 -2 -17 -11 -25 -8 -9 -13
-16 -9 -16 3 0 -1 -13 -9 -29 -9 -16 -12 -31 -9 -35 4 -3 1 -6 -5 -6 -6 0 -13
-14 -17 -30 -4 -17 -10 -28 -14 -26 -4 3 -7 -3 -8 -12 -2 -24 -50 -129 -63
-137 -6 -3 -8 -11 -4 -16 3 -5 2 -15 -3 -22 -5 -7 -17 -33 -27 -59 -10 -27
-22 -48 -27 -48 -6 0 -9 -6 -8 -12 2 -7 -8 -38 -21 -68 -14 -30 -23 -57 -21
-59 1 -2 -1 -7 -6 -10 -5 -3 -22 -37 -38 -76 -16 -38 -32 -72 -35 -75 -3 -3
-6 -10 -7 -15 -1 -6 -16 -42 -34 -80 -18 -39 -32 -76 -32 -82 0 -7 -4 -13 -8
-13 -7 0 -19 -36 -18 -54 1 -5 -3 -12 -8 -15 -8 -5 -47 -88 -48 -101 -1 -3
-11 -24 -23 -46 -11 -23 -18 -44 -15 -48 4 -3 1 -6 -5 -6 -7 0 -11 -3 -10 -7
1 -5 -3 -18 -10 -29 -6 -12 -8 -24 -5 -28 3 -3 1 -6 -5 -6 -7 0 -11 -3 -10 -7
1 -5 -3 -18 -10 -30 -7 -13 -10 -23 -7 -23 4 0 -1 -7 -9 -16 -9 -8 -16 -21
-16 -28 0 -7 -12 -37 -26 -67 -15 -30 -27 -60 -27 -66 0 -7 -4 -13 -9 -13 -4
0 -8 -5 -8 -11 0 -5 -10 -31 -21 -57 -12 -26 -30 -66 -40 -89 -11 -23 -19 -47
-19 -52 0 -6 -5 -11 -11 -11 -5 0 -7 -4 -4 -10 3 -5 2 -10 -3 -10 -5 0 -9 -6
-9 -13 0 -20 -36 -97 -46 -97 -4 0 -6 -4 -3 -9 3 -4 -3 -26 -13 -47 -11 -21
-17 -42 -14 -46 2 -5 0 -8 -5 -8 -10 0 -36 -58 -33 -72 0 -5 -4 -8 -9 -8 -6 0
-10 -6 -8 -12 1 -7 -5 -27 -15 -44 -9 -17 -13 -34 -10 -38 4 -3 1 -6 -5 -6 -9
0 -39 -70 -33 -79 2 -2 -2 -7 -9 -11 -6 -4 -12 -13 -14 -21 -1 -8 -8 -25 -16
-39 -8 -14 -15 -29 -15 -35 -1 -5 -13 -36 -28 -68 -15 -32 -27 -62 -27 -67 0
-6 -5 -10 -11 -10 -5 0 -7 -4 -4 -10 3 -5 1 -10 -4 -10 -6 0 -10 -3 -9 -7 3
-17 -15 -63 -25 -63 -6 0 -8 -3 -4 -6 3 -4 -2 -23 -12 -43 -11 -20 -19 -38
-18 -41 1 -9 -37 -85 -46 -91 -5 -3 -8 -9 -8 -13 1 -3 1 -7 0 -8 0 -2 -2 -12
-4 -22 -2 -10 -9 -22 -15 -26 -7 -4 -10 -9 -9 -11 2 -2 -5 -24 -16 -49 -10
-25 -18 -48 -17 -52 1 -5 -3 -8 -9 -8 -6 0 -9 -6 -7 -12 3 -7 -1 -19 -9 -26
-7 -8 -11 -18 -8 -23 4 -5 2 -9 -2 -9 -11 0 -33 -58 -27 -73 5 -14 341 -16
363 -2 9 5 12 4 7 -3 -3 -6 -2 -13 4 -17 5 -3 10 -1 10 4 0 7 19 9 50 7 31 -3
50 0 50 6 0 6 7 5 17 -3 20 -17 17 -17 36 -1 9 8 18 9 21 3 4 -5 18 -8 31 -5
16 3 25 0 25 -8 0 -10 2 -10 8 -1 5 8 25 11 55 9 32 -3 47 -1 47 7 0 7 4 6 10
-3 9 -13 11 -13 20 0 7 11 10 11 10 2 0 -7 4 -10 10 -7 5 3 19 1 31 -6 19 -9
21 -9 16 4 -5 13 -1 14 24 7 37 -11 41 -11 58 3 12 9 13 9 7 0 -4 -7 -3 -13 3
-13 6 0 13 11 17 25 3 14 10 25 15 25 5 0 9 5 9 11 0 5 -6 7 -12 4 -7 -4 -5 0
4 8 10 8 15 17 11 20 -3 4 0 7 7 7 7 0 11 3 7 6 -3 4 3 25 15 48 11 22 20 42
19 44 -1 1 6 17 16 35 9 17 18 38 19 44 4 24 29 73 37 73 5 0 6 3 3 8 -2 4 3
23 12 42 8 19 16 37 17 40 1 3 6 16 12 30 6 14 10 28 9 31 0 3 7 13 17 23 9
10 15 21 12 26 -2 4 39 7 93 5 58 -1 103 3 111 9 9 7 13 7 9 1 -8 -13 130 -14
151 -1 9 6 12 5 8 -1 -4 -6 18 -9 60 -8 37 1 80 -1 96 -6 26 -7 27 -6 15 8 -7
9 -8 14 -2 10 20 -11 85 -17 79 -7 -3 6 1 7 9 4 9 -3 13 -11 9 -18 -5 -8 -3
-8 8 0 8 6 34 11 59 9 25 -1 51 3 59 9 9 6 12 7 9 1 -4 -6 13 -10 43 -11 32
-1 46 3 42 10 -5 8 -3 8 8 0 8 -6 34 -10 59 -8 25 1 60 -1 78 -6 30 -8 32 -7
20 8 -7 8 -8 13 -2 9 20 -11 85 -17 79 -7 -3 6 1 7 9 4 9 -3 13 -11 9 -18 -5
-8 -3 -8 8 0 8 6 34 11 59 9 25 -1 51 3 59 9 9 6 12 7 9 1 -4 -6 13 -10 43
-11 32 -1 46 3 42 10 -5 8 -3 8 8 0 8 -6 34 -10 59 -8 25 1 60 -1 78 -6 30 -8
32 -7 20 8 -7 8 -8 13 -2 9 20 -11 85 -17 79 -7 -3 6 1 7 9 4 9 -3 13 -11 9
-18 -5 -8 -3 -8 8 1 8 6 32 10 54 8 22 -1 47 2 55 8 8 6 12 8 8 3 -4 -5 0 -15
8 -23 8 -8 12 -19 9 -24 -4 -5 -1 -9 4 -9 6 0 11 -9 11 -20 0 -11 5 -20 11
-20 5 0 7 -4 4 -10 -3 -5 -2 -10 3 -10 5 0 9 -6 9 -12 1 -23 8 -42 21 -56 7
-8 10 -18 7 -23 -4 -5 -1 -9 4 -9 6 0 11 -4 11 -9 0 -5 5 -22 12 -38 6 -15 11
-31 10 -35 -1 -5 3 -8 8 -8 6 0 10 -7 10 -15 0 -8 12 -40 27 -72 15 -32 28
-62 28 -68 0 -5 7 -16 15 -23 9 -8 10 -11 2 -7 -20 11 7 -34 37 -62 23 -20 57
-21 45 -1 -6 9 6 5 37 -14 3 -1 14 4 24 12 11 8 16 10 12 4 -4 -7 0 -15 9 -18
8 -3 12 -2 9 4 -4 7 12 9 44 6 34 -3 49 -1 45 6 -5 7 30 -6 42 -16 0 -1 8 5
17 12 9 8 18 9 21 3 4 -5 18 -8 31 -5 16 3 25 0 25 -8 0 -9 2 -10 8 -2 5 8 87
11 279 10 287 -1 286 -1 260 42 -5 6 -5 12 0 12 4 0 2 4 -5 9 -7 4 -14 14 -16
22 -1 8 -9 29 -19 48 -9 19 -17 40 -17 48 0 7 -4 13 -10 13 -5 0 -9 3 -9 8 3
20 -2 32 -13 26 -7 -4 -8 -3 -4 4 4 6 -5 36 -19 67 -14 31 -25 60 -25 65 0 6
-4 10 -10 10 -5 0 -10 11 -10 25 0 14 -5 25 -11 25 -5 0 -7 5 -4 10 3 6 1 10
-4 10 -6 0 -10 3 -9 8 3 14 -14 62 -23 62 -5 0 -9 11 -9 25 0 14 -4 25 -10 25
-5 0 -10 9 -10 20 0 11 -3 20 -8 20 -7 0 -32 63 -34 87 -1 7 -8 15 -15 17 -8
3 -12 10 -8 15 3 5 1 12 -5 16 -6 4 -8 11 -5 16 4 5 1 9 -4 9 -6 0 -11 9 -11
19 0 11 -5 23 -10 26 -6 4 -8 11 -5 16 4 5 1 9 -4 9 -6 0 -10 3 -9 8 1 4 -4
20 -10 35 -7 16 -12 33 -12 38 0 5 -4 9 -10 9 -5 0 -10 7 -10 16 0 9 -11 38
-24 64 -13 27 -22 51 -19 54 4 3 2 6 -4 6 -5 0 -10 7 -11 15 -1 8 -3 21 -4 29
-1 8 -6 14 -12 13 -6 -1 -10 6 -10 16 1 9 -3 17 -8 17 -6 0 -8 6 -5 14 3 8 -1
17 -9 20 -9 3 -13 10 -10 15 4 5 0 16 -8 24 -8 8 -13 17 -10 19 2 3 -13 43
-34 89 -50 108 -56 122 -54 132 1 4 -2 7 -8 7 -5 0 -10 9 -10 20 0 11 -4 20
-10 20 -5 0 -7 7 -4 15 4 8 1 15 -6 15 -6 0 -8 5 -5 10 3 6 1 10 -5 10 -6 0
-9 4 -5 9 3 5 0 15 -7 23 -13 14 -20 33 -21 56 0 6 -4 12 -8 12 -7 0 -20 30
-25 60 -2 8 -8 16 -13 18 -6 2 -11 15 -11 28 0 13 -4 24 -10 24 -5 0 -10 6
-10 13 0 8 -6 27 -14 43 -13 27 -36 78 -67 152 -8 17 -17 32 -21 32 -3 0 -5 8
-4 17 2 10 -3 24 -11 31 -7 8 -11 18 -8 23 4 5 1 9 -4 9 -6 0 -10 3 -9 8 1 4
-3 17 -10 28 -6 12 -8 24 -5 28 3 3 1 6 -6 6 -7 0 -9 5 -6 10 3 6 2 10 -3 10
-5 0 -15 20 -22 45 -7 25 -17 45 -21 45 -5 0 -9 9 -9 19 0 11 -5 23 -10 26 -6
4 -8 11 -5 16 4 5 1 9 -4 9 -6 0 -10 3 -9 8 0 4 -7 25 -17 47 -22 47 -21 44
-30 73 -4 12 -12 22 -17 22 -5 0 -7 4 -4 8 3 5 -6 31 -19 58 -13 27 -22 51
-20 53 2 2 -2 10 -10 18 -8 8 -15 23 -15 34 0 10 -4 19 -10 19 -5 0 -10 8 -10
18 0 10 -5 23 -12 30 -7 7 -9 12 -4 12 4 0 -3 14 -15 32 -13 17 -16 28 -8 23
9 -5 8 -1 -3 12 -10 11 -18 25 -18 31 0 6 -9 27 -19 46 -11 19 -18 36 -15 39
2 2 -2 10 -10 16 -8 7 -12 19 -9 27 3 8 0 14 -6 14 -6 0 -10 3 -9 8 1 4 -3 17
-10 28 -6 12 -8 24 -5 28 3 3 1 6 -5 6 -7 0 -12 9 -12 20 0 11 -4 20 -10 20
-5 0 -10 6 -10 14 0 7 -15 47 -34 87 -18 41 -33 77 -32 80 1 3 -5 13 -13 22
-7 10 -10 17 -6 17 5 0 0 10 -11 22 -12 13 -13 18 -4 13 11 -6 10 -3 -2 12
-10 11 -18 22 -18 25 0 3 -8 23 -17 44 -9 22 -16 42 -15 47 1 4 -3 7 -9 7 -5
0 -8 4 -4 9 3 5 1 12 -5 16 -6 4 -8 10 -5 15 3 4 -2 13 -10 20 -8 7 -15 18
-15 24 0 7 -8 28 -19 49 -10 20 -14 34 -7 31 6 -3 3 1 -6 9 -10 8 -15 17 -11
20 3 4 2 7 -4 7 -5 0 -10 6 -10 13 0 6 -15 44 -33 82 -18 39 -33 75 -34 80 -1
6 -8 20 -14 33 -7 12 -9 22 -5 22 4 0 2 4 -5 9 -7 4 -14 15 -16 23 -1 9 -8 24
-16 34 -8 9 -14 20 -14 23 2 8 -13 48 -32 85 -8 16 -14 35 -14 43 0 7 -4 13
-10 13 -5 0 -10 8 -10 18 0 10 -4 22 -9 28 -5 5 -11 18 -13 29 -1 11 -7 23
-11 26 -5 3 -10 14 -11 24 -2 17 -15 19 -145 19 -79 1 -148 -2 -154 -6z m158
-1647 c-5 -9 9 -47 46 -124 10 -21 14 -35 8 -32 -5 4 -1 -8 11 -27 11 -18 20
-41 20 -50 0 -10 5 -18 11 -18 5 0 8 -4 5 -8 -3 -5 1 -19 7 -33 7 -13 24 -53
37 -89 13 -36 30 -75 38 -87 7 -12 11 -27 8 -32 -4 -5 2 -14 11 -20 13 -7 14
-10 4 -11 -11 0 -11 -4 2 -18 10 -10 17 -28 17 -40 0 -12 5 -22 10 -22 6 0 10
-7 10 -15 0 -8 11 -39 24 -70 14 -30 23 -55 20 -55 -2 0 2 -10 11 -23 8 -13
12 -27 8 -30 -3 -4 -1 -7 6 -7 8 0 11 -8 8 -19 -3 -12 1 -22 10 -25 9 -4 13
-13 9 -21 -3 -9 1 -18 9 -21 8 -4 12 -10 9 -15 -3 -6 0 -16 6 -24 7 -8 9 -15
5 -15 -4 0 -2 -6 4 -13 6 -8 8 -17 4 -20 -3 -4 -1 -7 6 -7 8 0 11 -7 7 -15 -3
-8 -2 -15 3 -15 9 0 26 -48 23 -62 -1 -5 3 -8 8 -8 5 0 9 -3 8 -7 -1 -8 5 -28
22 -68 5 -11 14 -37 21 -57 7 -21 17 -34 23 -31 6 3 8 3 4 -2 -4 -4 4 -36 17
-71 l24 -64 -40 4 c-25 3 -39 0 -39 -7 0 -8 -3 -8 -8 -2 -10 14 -112 15 -112
1 0 -7 -3 -7 -8 -1 -9 13 -105 14 -114 0 -5 -6 -8 -6 -8 0 0 13 -110 14 -110
0 0 -6 -3 -7 -8 0 -9 13 -105 14 -114 0 -5 -6 -8 -6 -8 0 0 13 -110 14 -110 0
0 -6 -3 -7 -8 0 -9 13 -105 14 -114 0 -5 -6 -8 -6 -8 0 0 13 -110 14 -110 0 0
-6 -3 -7 -8 0 -9 13 -105 14 -114 0 -5 -6 -8 -6 -8 0 0 6 -16 10 -35 9 -19 -1
-35 -1 -35 1 0 2 9 24 20 49 11 26 20 48 20 51 0 3 0 10 0 16 0 5 6 7 13 3 6
-4 9 -4 5 1 -4 4 -1 23 7 41 8 19 11 34 7 34 -4 0 -1 4 6 9 7 4 14 18 15 29 1
12 5 22 9 22 4 0 7 3 6 8 -1 8 6 29 29 81 8 18 16 39 18 45 4 20 25 70 41 99
8 15 13 27 10 27 -3 0 3 20 14 45 11 25 17 45 14 45 -3 0 2 7 10 16 9 8 16 23
16 32 0 10 6 26 14 37 7 11 14 24 14 28 0 13 34 101 44 114 5 7 7 17 3 23 -3
5 -2 10 3 10 6 0 13 7 16 16 3 8 2 12 -3 9 -5 -3 1 15 14 40 14 25 22 45 18
45 -3 0 0 6 6 13 6 8 8 17 4 20 -3 4 -1 7 5 7 7 0 11 3 10 8 -1 4 3 17 10 30
7 12 10 22 6 22 -3 0 -1 6 5 13 6 8 8 17 4 20 -3 4 -1 7 5 7 6 0 14 16 18 35
3 19 10 35 14 35 6 0 18 35 24 72 1 3 4 10 9 14 4 4 7 16 7 26 0 10 5 18 11
18 5 0 8 4 4 9 -3 5 -1 12 5 16 6 4 8 11 5 16 -4 5 -1 9 4 9 6 0 10 3 10 8 -3
16 2 22 17 22 8 0 13 -4 9 -9z"/>
<path d="M5799 13150 c-5 -40 -2 -160 4 -160 5 0 5 -5 1 -12 -11 -17 -13 -88
-3 -88 5 0 6 -6 3 -14 -9 -24 -10 -126 -1 -126 4 0 5 -5 1 -12 -11 -17 -13
-88 -3 -88 5 0 6 -6 3 -14 -9 -24 -10 -126 -1 -126 4 0 5 -5 1 -12 -11 -17
-13 -88 -3 -88 5 0 6 -6 3 -14 -9 -24 -10 -126 -1 -126 4 0 5 -5 1 -12 -11
-18 -13 -88 -2 -88 5 0 6 -5 2 -11 -9 -16 -11 -209 -1 -209 5 0 5 -5 1 -12
-11 -17 -13 -88 -3 -88 5 0 6 -6 3 -14 -9 -24 -10 -126 -1 -126 4 0 5 -5 1
-12 -11 -17 -13 -88 -3 -88 5 0 6 -6 3 -14 -9 -24 -10 -126 -1 -126 4 0 5 -5
1 -12 -11 -17 -13 -88 -3 -88 5 0 6 -6 3 -14 -9 -24 -10 -126 -1 -126 4 0 5
-5 1 -12 -11 -17 -13 -88 -3 -88 5 0 6 -6 3 -14 -9 -24 -10 -126 -1 -126 4 0
5 -5 1 -12 -11 -18 -13 -88 -2 -88 5 0 6 -5 2 -11 -9 -16 -11 -209 -1 -209 5
0 5 -5 1 -12 -11 -17 -13 -88 -3 -88 5 0 6 -6 3 -14 -9 -24 -10 -126 -1 -126
4 0 5 -5 1 -12 -11 -17 -13 -88 -3 -88 5 0 6 -6 3 -14 -9 -24 -10 -126 -1
-126 4 0 5 -5 1 -12 -11 -17 -13 -88 -3 -88 5 0 6 -6 3 -14 -9 -24 -10 -126
-1 -126 4 0 5 -5 1 -12 -11 -17 -13 -88 -3 -88 5 0 6 -6 3 -14 -9 -24 -10
-126 -1 -126 4 0 5 -5 1 -12 -11 -18 -13 -88 -2 -88 5 0 6 -5 2 -11 -9 -16
-11 -209 -1 -209 5 0 5 -5 1 -12 -11 -17 -13 -88 -3 -88 5 0 6 -6 3 -14 -9
-24 -10 -126 -1 -126 4 0 5 -5 1 -12 -11 -17 -13 -88 -3 -88 5 0 6 -6 3 -13
-3 -8 -6 -35 -8 -60 -2 -42 0 -47 18 -48 138 -7 604 -2 615 6 11 7 13 7 8 -2
-4 -6 -3 -14 3 -18 5 -3 10 -1 10 4 0 7 19 9 50 7 29 -3 50 0 50 5 0 6 6 7 13
2 18 -11 36 -12 43 -2 3 5 11 6 17 2 28 -18 45 -13 42 12 -1 14 1 25 4 25 7 0
4 1418 -4 1429 -2 5 7 13 21 20 20 9 24 9 18 -1 -6 -9 -3 -9 9 1 9 7 17 9 17
4 0 -5 7 -10 15 -10 8 0 15 5 15 10 0 5 6 5 13 -2 10 -8 17 -7 25 1 7 7 12 8
12 2 0 -6 7 -11 15 -11 8 0 15 5 15 11 0 6 4 6 11 -1 8 -8 20 -8 35 -3 13 5
24 6 24 2 0 -4 20 -7 44 -7 24 0 42 3 39 8 -2 4 1 7 6 7 6 0 11 -5 11 -10 0
-7 6 -7 19 -1 10 6 21 8 24 5 8 -8 57 -12 57 -5 0 4 9 7 20 7 11 0 20 -4 20
-8 0 -7 34 -3 50 7 6 3 10 2 10 -3 0 -5 7 -9 15 -9 8 0 15 5 15 10 0 5 6 5 13
-2 10 -8 17 -7 25 1 7 7 12 8 12 2 0 -6 7 -11 15 -11 8 0 15 4 15 9 0 5 6 6
13 1 16 -10 67 -11 61 -1 -3 4 0 8 5 8 6 0 11 -4 11 -8 0 -5 15 -7 33 -5 17 2
38 4 45 3 29 -1 40 0 87 4 114 11 148 16 182 25 20 6 40 8 45 5 4 -3 8 -2 8 3
0 4 14 9 31 10 17 1 38 8 47 15 13 11 14 11 7 -2 -6 -12 -5 -13 6 -2 7 6 23
12 36 12 13 0 23 4 23 10 0 5 7 7 15 4 8 -4 15 -2 15 3 0 5 7 10 15 11 8 1 22
3 30 4 8 1 15 5 15 10 0 4 9 8 20 8 11 0 20 4 20 10 0 5 7 7 15 4 8 -4 15 -1
15 7 0 7 3 9 7 6 3 -4 15 0 25 10 10 9 18 13 18 8 0 -4 11 0 25 9 13 9 31 16
39 16 7 0 17 7 20 16 3 8 10 12 16 9 6 -3 13 1 16 9 3 9 13 16 20 16 8 0 17 7
20 15 4 8 10 12 15 10 4 -3 17 3 28 14 11 11 22 17 24 14 3 -2 10 5 17 16 6
12 15 19 19 16 5 -3 12 2 15 11 3 8 10 12 16 9 5 -3 10 1 10 9 0 9 4 16 9 16
11 0 100 87 94 93 -2 3 5 8 16 12 12 3 21 12 21 18 0 7 13 24 30 39 16 14 27
28 24 30 -2 3 7 17 20 31 13 14 21 28 18 31 -3 3 -1 6 5 6 6 0 16 14 22 31 6
17 14 28 19 25 4 -2 9 5 9 17 1 12 7 23 13 25 5 2 10 10 10 18 0 8 5 14 11 14
5 0 7 5 3 11 -3 6 3 24 15 40 11 15 21 33 21 40 0 14 33 112 40 119 3 3 5 14
5 25 -1 11 3 23 7 26 5 3 10 31 11 61 1 31 5 54 10 51 6 -3 10 40 10 110 0 9
5 17 11 17 6 0 4 5 -4 10 -12 8 -12 10 -1 10 9 0 10 4 4 13 -11 14 -11 27 1
46 7 11 6 12 -5 6 -11 -7 -12 -6 -2 7 7 8 10 18 6 22 -11 11 -10 46 1 46 6 0
4 5 -4 10 -13 9 -13 11 0 20 12 8 12 10 1 10 -11 0 -11 3 -1 15 7 8 8 15 2 15
-5 0 -10 21 -10 46 -1 25 -6 52 -12 58 -5 7 -7 15 -4 19 8 8 -16 119 -30 136
-9 12 -8 13 4 6 12 -7 13 -6 4 6 -12 15 -28 68 -26 82 1 4 -3 7 -9 7 -5 0 -7
5 -4 10 3 6 1 10 -5 10 -6 0 -9 4 -6 9 7 11 -88 201 -106 213 -7 4 -9 8 -5 8
5 0 2 6 -5 14 -7 7 -20 24 -28 36 -21 32 -73 94 -82 98 -5 2 -8 11 -8 20 0 8
-3 12 -6 9 -4 -4 -20 10 -35 30 -16 20 -29 32 -29 28 0 -4 -13 7 -29 24 -15
16 -31 27 -35 24 -3 -3 -6 1 -6 11 0 9 -4 14 -10 11 -5 -3 -10 -2 -10 3 0 10
-107 82 -121 82 -5 0 -9 5 -9 10 0 6 -7 10 -15 10 -8 0 -15 5 -15 11 0 5 -4 7
-10 4 -5 -3 -10 -1 -10 5 0 6 -4 9 -9 6 -5 -3 -14 1 -21 9 -7 8 -16 12 -21 9
-5 -3 -9 -1 -9 4 0 5 -18 15 -40 22 -22 7 -40 17 -40 23 0 5 -6 7 -14 4 -7 -3
-23 1 -35 9 -11 8 -21 13 -21 10 0 -3 -16 3 -36 14 -19 11 -32 15 -28 8 6 -10
4 -10 -9 0 -9 8 -21 11 -27 7 -5 -3 -10 -2 -10 4 0 5 -8 10 -17 10 -38 1 -53
5 -53 12 0 4 -8 7 -17 7 -26 -1 -47 5 -55 17 -5 6 -8 5 -8 -3 0 -10 -5 -10
-21 -2 -11 7 -27 9 -35 6 -8 -3 -14 -2 -14 2 0 5 -18 8 -40 7 -22 -1 -40 2
-40 5 0 4 -12 6 -27 5 -16 -1 -46 2 -68 6 -27 5 -42 3 -47 -4 -4 -7 -8 -7 -8
-2 0 11 -1679 16 -1681 5z m1146 -765 c17 -1 33 4 37 10 5 6 8 6 8 0 0 -13 63
-13 72 0 5 7 8 6 8 -1 0 -10 60 -10 88 1 7 2 10 1 7 -4 -3 -5 -1 -12 5 -16 5
-3 10 -1 10 4 0 15 27 14 33 -1 3 -7 6 -4 6 7 1 11 5 16 9 10 9 -13 65 -14 74
0 5 7 8 7 8 0 0 -11 110 -11 137 -1 8 3 11 1 8 -4 -4 -7 3 -9 19 -6 14 3 26 2
26 -2 0 -4 17 -8 38 -9 49 -3 70 -8 78 -16 4 -4 18 -7 31 -7 12 0 23 -5 23
-11 0 -6 7 -9 15 -5 8 3 19 -2 24 -12 6 -9 11 -13 11 -8 0 5 10 1 22 -10 14
-12 18 -14 13 -4 -4 8 5 4 21 -10 16 -14 30 -28 32 -32 2 -5 9 -8 16 -8 6 0
27 -19 46 -41 19 -23 44 -50 54 -60 11 -11 16 -19 10 -19 -5 0 -4 -4 1 -8 9
-6 21 -28 66 -123 4 -9 11 -38 15 -65 8 -47 9 -55 13 -71 5 -20 2 -113 -4
-122 -3 -6 0 -11 7 -11 8 0 9 -3 3 -8 -5 -4 -11 -18 -12 -32 -5 -63 -8 -80
-13 -80 -3 0 -6 -8 -7 -17 -1 -10 -7 -31 -14 -48 -7 -16 -13 -32 -13 -35 -3
-17 -63 -108 -87 -131 -15 -15 -25 -30 -22 -33 4 -3 -1 -6 -10 -6 -8 0 -19 -9
-22 -20 -4 -11 -10 -18 -14 -15 -5 2 -21 -7 -37 -20 -16 -14 -48 -33 -71 -43
-24 -9 -43 -21 -43 -25 0 -5 -4 -5 -10 -2 -5 3 -16 3 -22 -2 -7 -4 -17 -8 -23
-9 -5 -1 -23 -5 -40 -9 -16 -3 -44 -7 -60 -9 -17 -1 -36 -5 -43 -10 -7 -4 -12
-2 -12 5 0 9 -3 9 -14 0 -10 -8 -16 -9 -21 -1 -3 6 -12 7 -18 3 -19 -12 -100
-11 -116 1 -11 8 -13 8 -8 -1 9 -15 -32 -14 -52 1 -11 8 -13 8 -8 -1 9 -15
-32 -14 -52 1 -11 8 -13 8 -8 -1 9 -15 -32 -14 -52 1 -11 8 -13 8 -8 -1 9 -15
-32 -14 -52 1 -11 8 -13 8 -8 -1 9 -15 -32 -14 -52 1 -11 8 -13 8 -8 -1 9 -15
-32 -14 -52 1 -11 8 -13 8 -8 -1 9 -15 -32 -14 -52 1 -11 8 -13 8 -8 -1 9 -15
-32 -14 -52 1 -11 8 -13 8 -8 -1 9 -15 -32 -14 -52 1 -11 8 -13 8 -8 0 5 -8
-5 -11 -31 -10 -37 1 -37 1 -38 47 0 25 -4 51 -8 57 -3 6 -2 14 4 17 8 5 7 11
-1 21 -9 11 -9 14 0 14 7 0 10 4 7 9 -5 7 -8 967 -4 1032 1 14 17 16 107 16
68 0 109 -4 113 -11 5 -7 8 -3 8 9 0 11 4 16 8 10 4 -5 21 -10 37 -10z"/>
<path d="M14598 13124 c-2 -18 -1 -41 3 -51 3 -10 3 -28 -2 -40 -5 -13 -5 -23
0 -23 5 0 5 -16 1 -35 -4 -20 -4 -38 1 -41 5 -3 7 -10 3 -15 -7 -12 -12 -108
-5 -114 8 -8 6 -63 -2 -58 -4 2 -5 -8 -1 -23 4 -16 7 -33 6 -39 -7 -57 -7 -75
-1 -75 4 0 4 -13 -1 -29 -4 -15 -4 -34 0 -42 5 -7 6 -17 3 -22 -10 -16 -8 -87
2 -91 6 -3 5 -5 -2 -5 -8 -1 -9 -10 -3 -30 4 -16 6 -32 3 -35 -8 -8 -10 -66
-2 -66 4 0 4 -13 -1 -29 -4 -15 -4 -34 0 -42 5 -7 6 -17 3 -22 -5 -8 -7 -90
-3 -112 1 -5 1 -14 0 -20 -5 -21 -2 -116 3 -121 3 -4 2 -17 -3 -30 -5 -13 -6
-24 -1 -24 5 0 5 -16 1 -35 -4 -20 -4 -38 1 -41 5 -3 7 -10 3 -15 -8 -14 -11
-110 -3 -115 4 -2 3 -20 -1 -39 -4 -20 -4 -38 1 -41 5 -3 7 -10 3 -15 -5 -9
-8 -120 -4 -144 2 -5 1 -14 0 -20 -5 -21 -2 -116 3 -121 3 -4 2 -17 -3 -30 -5
-13 -6 -24 -1 -24 5 0 5 -16 1 -35 -4 -20 -4 -38 1 -41 5 -3 7 -10 3 -15 -8
-14 -11 -110 -3 -115 4 -2 3 -20 -1 -39 -4 -19 -4 -37 1 -40 4 -3 5 -15 0 -26
-4 -12 -4 -43 -1 -69 3 -27 2 -47 -2 -44 -5 3 -6 -7 -2 -22 4 -16 7 -33 6 -39
-7 -57 -7 -75 -1 -75 4 0 4 -13 -1 -29 -4 -15 -4 -34 0 -42 5 -7 6 -17 3 -22
-10 -16 -8 -87 2 -91 6 -3 5 -5 -2 -5 -8 -1 -9 -10 -3 -30 4 -16 6 -32 3 -35
-8 -8 -10 -66 -2 -66 4 0 4 -13 -1 -29 -4 -15 -4 -34 0 -42 5 -7 5 -20 1 -28
-8 -17 -6 -79 3 -88 2 -3 1 -16 -4 -29 -5 -13 -6 -24 -1 -24 5 0 5 -16 1 -35
-4 -20 -4 -38 1 -41 5 -3 7 -10 3 -15 -8 -14 -11 -110 -3 -115 4 -2 3 -20 -1
-39 -4 -20 -4 -38 1 -41 5 -3 6 -10 3 -16 -8 -13 -9 -117 -1 -124 3 -4 2 -17
-3 -30 -5 -13 -6 -24 -1 -24 5 0 5 -16 1 -35 -4 -20 -4 -38 1 -41 5 -3 7 -10
3 -15 -8 -14 -11 -110 -3 -115 4 -2 3 -20 -1 -39 -4 -20 -4 -38 1 -41 5 -3 6
-10 3 -16 -8 -13 -9 -117 -1 -124 3 -4 2 -17 -3 -30 -5 -13 -6 -24 -1 -24 5 0
5 -16 1 -35 -4 -20 -4 -38 1 -41 5 -3 6 -10 3 -16 -7 -11 -8 -101 -1 -132 3
-15 13 -20 40 -22 23 -1 34 2 30 9 -4 6 -1 7 7 2 18 -11 80 -13 86 -3 3 5 11
5 17 0 7 -5 21 -8 32 -6 11 1 23 -2 27 -9 6 -9 8 -9 8 1 0 8 14 11 50 8 34 -3
50 -1 50 7 0 7 4 6 10 -3 9 -13 11 -13 20 0 7 11 10 11 10 2 0 -7 4 -10 10 -7
5 3 19 1 31 -6 19 -9 21 -9 16 4 -5 13 -1 14 24 7 16 -5 31 -10 33 -12 1 -2
10 3 19 10 8 7 18 9 20 5 6 -10 88 -10 104 0 6 4 14 3 18 -2 3 -5 15 -8 27 -6
12 3 26 -1 30 -8 6 -9 8 -9 8 1 0 6 8 12 18 12 10 0 24 -6 31 -12 11 -11 12
-10 7 0 -6 10 2 13 36 10 30 -2 42 1 41 10 -2 6 1 12 6 12 9 0 5 55 -4 71 -4
5 -2 9 2 9 7 0 9 44 3 60 -1 3 -1 10 0 15 5 19 0 146 -5 156 -4 5 -2 9 2 9 10
0 10 47 0 56 -3 4 -2 15 4 25 6 13 6 19 0 19 -7 0 -7 9 -1 25 6 15 6 26 -1 30
-6 4 -6 13 0 23 5 9 5 26 0 39 -5 13 -5 23 -1 23 7 0 8 45 2 60 -1 3 -1 10 0
15 5 19 0 146 -5 156 -4 5 -2 9 2 9 10 0 10 47 0 56 -3 4 -2 15 4 25 6 13 6
19 0 19 -7 0 -7 9 -1 25 6 15 6 26 -1 30 -6 4 -6 13 0 23 5 9 5 26 0 39 -5 13
-5 23 -1 23 7 0 8 45 2 60 -1 3 -1 10 0 15 5 19 0 146 -5 156 -4 5 -2 9 2 9
10 0 10 47 0 56 -3 4 -2 15 4 25 6 13 6 19 0 19 -7 0 -7 8 -1 24 5 13 6 26 3
29 -2 3 -2 15 2 26 5 16 10 19 23 12 11 -6 24 -6 35 0 9 6 17 6 17 2 0 -5 20
-8 44 -8 24 0 42 3 39 8 -2 4 1 7 6 7 6 0 11 -5 11 -10 0 -7 6 -7 19 -1 10 6
21 8 24 5 8 -8 57 -12 57 -5 0 4 9 7 20 7 11 0 20 -4 20 -8 0 -7 34 -3 50 7 6
3 10 2 10 -3 0 -5 7 -9 15 -9 8 0 15 5 15 10 0 5 6 5 13 -2 10 -8 17 -7 25 1
7 7 12 8 12 2 0 -6 7 -11 15 -11 8 0 15 5 15 10 0 5 6 5 13 -2 10 -8 17 -7 25
1 7 7 12 8 12 2 0 -6 7 -11 15 -11 8 0 15 4 15 9 0 5 6 6 13 1 6 -4 20 -6 30
-5 9 2 20 -4 23 -12 3 -9 11 -13 17 -9 5 3 7 2 4 -4 -3 -5 7 -24 23 -42 16
-17 30 -35 31 -39 3 -11 53 -77 62 -80 4 -2 7 -10 7 -18 0 -7 9 -19 20 -26 11
-7 20 -18 20 -24 0 -5 8 -19 18 -30 10 -11 27 -33 37 -49 20 -31 31 -45 64
-82 10 -12 18 -23 15 -25 -2 -2 10 -19 26 -36 16 -18 26 -32 22 -32 -4 0 0 -6
8 -13 8 -7 26 -29 40 -49 14 -21 29 -38 33 -38 5 0 5 -4 2 -10 -3 -5 -3 -10 2
-10 4 0 19 -17 33 -37 14 -21 33 -45 43 -55 9 -10 17 -25 17 -34 0 -8 5 -12
10 -9 6 3 10 -1 10 -9 0 -9 4 -16 8 -16 4 0 16 -15 27 -32 10 -18 24 -37 32
-41 7 -4 13 -15 13 -22 0 -8 3 -15 8 -15 4 -1 27 -30 52 -66 25 -36 55 -77 68
-90 12 -12 22 -27 22 -32 0 -5 10 -20 23 -34 12 -14 29 -35 37 -48 8 -12 21
-29 28 -36 7 -8 10 -14 6 -14 -4 0 3 -8 14 -19 12 -10 22 -21 22 -25 0 -3 23
-35 50 -70 28 -35 50 -69 50 -75 0 -7 5 -9 10 -6 6 3 10 -1 10 -9 0 -9 5 -16
10 -16 6 0 10 -5 10 -11 0 -18 40 -48 56 -42 8 3 22 -1 31 -8 9 -8 14 -9 10
-3 -4 8 91 10 331 9 219 0 342 3 351 10 11 7 13 7 8 -2 -4 -6 -3 -14 3 -18 5
-3 10 -1 10 4 0 7 19 9 50 7 31 -3 50 0 50 6 0 7 5 7 13 1 14 -11 27 -11 44 0
6 4 14 3 18 -2 3 -6 12 -8 20 -4 12 4 11 10 -8 33 -12 15 -29 37 -37 50 -8 12
-21 29 -28 36 -7 8 -10 14 -6 14 4 0 -2 8 -13 18 -11 9 -32 37 -48 62 -15 25
-34 49 -41 53 -8 4 -14 15 -14 22 0 8 -4 15 -9 15 -5 0 -12 8 -15 18 -3 9 -17
29 -31 45 -14 15 -23 27 -19 27 4 0 -5 11 -19 24 -14 13 -23 26 -20 29 3 3 -6
16 -19 29 -14 13 -28 33 -32 46 -4 12 -14 22 -22 22 -8 0 -13 4 -10 8 3 5 -5
20 -17 33 -28 32 -46 59 -53 82 -4 9 -13 17 -21 17 -8 0 -11 5 -8 10 3 6 1 10
-4 10 -6 0 -11 7 -11 15 0 7 -8 19 -17 24 -10 6 -14 11 -10 11 4 0 -6 15 -22
33 -17 17 -31 38 -31 45 0 6 -5 12 -12 12 -6 0 -9 3 -5 6 3 3 -8 20 -24 36
-16 17 -29 37 -29 44 0 8 -4 14 -10 14 -5 0 -16 12 -24 28 -12 24 -23 38 -65
88 -5 7 -7 15 -4 18 4 3 -1 6 -11 6 -9 0 -15 4 -12 8 3 5 -6 20 -20 35 -14 15
-21 27 -17 27 4 0 0 5 -10 11 -9 6 -15 14 -12 19 3 4 -2 11 -11 14 -8 3 -12
10 -9 16 3 5 -1 10 -10 10 -9 0 -13 5 -10 10 3 6 1 10 -6 10 -7 0 -10 3 -6 6
3 3 -2 14 -11 25 -10 10 -25 28 -34 39 -10 11 -18 24 -18 29 0 5 -3 11 -7 13
-5 2 -23 26 -42 53 -52 76 -115 160 -123 163 -5 2 -8 10 -8 18 0 8 -5 14 -11
14 -5 0 -8 4 -5 9 3 5 -1 11 -9 15 -27 10 -17 41 18 54 17 7 34 12 37 13 3 0
9 7 13 15 4 8 14 14 22 14 7 0 20 6 27 13 7 6 32 25 56 41 23 16 42 33 42 39
0 6 3 7 7 4 3 -4 21 9 40 28 18 19 33 32 33 29 0 -3 14 9 30 26 17 17 30 35
30 41 0 6 4 8 9 5 5 -3 16 5 25 18 8 14 27 36 41 50 14 14 25 28 24 32 0 3 10
18 24 34 14 15 23 31 20 34 -4 3 -1 6 5 6 7 0 12 7 12 15 0 8 3 15 8 15 4 0
23 32 42 70 19 39 38 70 43 70 4 0 6 4 2 10 -3 5 -1 17 4 27 5 10 15 33 21 51
7 17 18 32 24 32 6 0 4 5 -4 10 -9 6 -10 10 -3 10 6 0 10 9 8 20 -2 11 0 20 5
20 4 0 7 11 5 25 -1 14 2 25 7 25 5 0 6 5 3 10 -3 6 -2 10 4 10 6 0 8 7 5 15
-4 8 -1 22 6 30 9 11 9 15 1 15 -8 0 -9 5 -2 18 5 10 12 42 15 72 3 29 7 55
10 58 3 2 1 13 -4 23 -7 12 -6 19 3 22 9 4 9 6 0 6 -7 1 -13 6 -13 12 0 5 4 8
8 5 5 -3 8 15 8 40 0 24 -4 44 -10 44 -6 0 -4 5 4 10 11 7 11 10 2 10 -7 0
-10 5 -7 11 9 14 14 59 6 54 -4 -2 -8 22 -9 53 -1 31 -7 59 -12 60 -7 3 -7 9
1 18 6 8 7 14 2 14 -5 0 -9 8 -10 18 -1 14 -8 49 -17 87 -2 6 -6 18 -10 27 -4
9 -5 22 -1 28 3 5 1 10 -4 10 -6 0 -11 12 -11 26 0 14 -4 23 -10 19 -6 -4 -10
7 -10 25 0 18 -4 29 -10 25 -5 -3 -10 2 -10 13 0 10 -3 22 -7 26 -5 4 -9 11
-9 14 -4 20 -30 72 -36 72 -4 0 -8 5 -8 12 0 6 -11 26 -26 45 -14 18 -22 33
-19 33 4 0 -1 7 -9 16 -9 9 -28 32 -43 52 -15 21 -40 49 -55 65 -15 15 -25 27
-23 27 3 0 -11 15 -31 33 -20 17 -52 47 -71 65 -19 17 -37 32 -39 32 -3 0 -10
5 -17 10 -48 41 -62 50 -74 50 -7 0 -13 4 -13 8 0 5 -12 15 -27 22 -16 8 -41
23 -56 33 -15 10 -34 20 -41 21 -8 1 -21 7 -29 14 -8 7 -23 15 -33 17 -11 2
-37 12 -59 23 -22 11 -43 18 -47 15 -5 -2 -8 1 -8 8 0 7 -3 9 -7 6 -3 -4 -17
0 -31 9 -13 9 -21 11 -17 4 5 -9 1 -8 -16 1 -13 7 -37 15 -54 17 -16 2 -34 8
-39 13 -6 5 -24 9 -41 9 -18 0 -35 3 -38 7 -4 3 -25 7 -48 9 -23 2 -47 8 -55
15 -8 6 -14 8 -14 3 0 -5 -11 -9 -25 -9 -14 0 -25 3 -25 7 0 3 -7 5 -16 4 -9
-1 -37 1 -63 5 -30 4 -48 3 -53 -5 -4 -6 -8 -7 -8 -1 0 7 -282 10 -839 10
l-839 1 -4 -32z m1167 -739 c6 0 13 4 17 10 5 7 8 7 8 -1 0 -10 60 -10 88 1 7
2 11 1 8 -4 -3 -5 1 -12 10 -15 8 -3 12 -2 9 3 -8 14 127 11 144 -3 11 -8 13
-8 8 1 -5 8 4 12 33 11 23 0 40 -5 40 -12 0 -6 4 -5 9 3 5 7 15 11 22 9 8 -3
26 -1 42 3 16 4 25 4 22 -1 -3 -5 10 -7 30 -5 19 3 35 1 35 -3 0 -4 16 -7 35
-6 19 1 37 -1 40 -5 2 -5 18 -7 35 -6 16 1 30 -2 30 -7 0 -4 7 -8 15 -8 8 0
15 -5 15 -11 0 -5 4 -7 10 -4 10 6 71 -21 81 -37 3 -5 9 -9 13 -9 16 1 35 -12
29 -22 -3 -6 -1 -7 5 -3 15 9 126 -104 144 -145 7 -16 16 -29 19 -29 6 0 46
-101 55 -143 3 -12 6 -34 7 -49 0 -16 4 -28 9 -28 5 0 4 -8 -1 -19 -6 -10 -8
-21 -5 -24 8 -8 11 -107 3 -107 -3 0 -5 -10 -4 -22 1 -13 -2 -33 -6 -45 -6
-16 -5 -23 4 -23 9 0 9 -2 0 -8 -7 -4 -14 -17 -16 -27 -2 -11 -8 -30 -15 -41
-6 -12 -8 -24 -5 -28 3 -3 1 -6 -6 -6 -7 0 -10 -4 -6 -9 3 -5 -2 -16 -10 -25
-9 -8 -16 -19 -17 -23 -2 -15 -51 -83 -59 -83 -5 0 -9 -7 -9 -17 0 -9 -2 -14
-5 -11 -3 3 -19 -6 -34 -21 -41 -38 -61 -53 -61 -46 0 3 -10 -3 -22 -14 -11
-11 -25 -18 -30 -15 -4 3 -8 0 -8 -5 0 -6 -9 -11 -20 -11 -11 0 -20 -4 -20 -8
0 -4 -8 -9 -17 -10 -51 -6 -59 -8 -65 -18 -4 -5 -25 -10 -47 -9 -23 1 -41 -2
-41 -5 0 -3 -138 -6 -306 -5 -168 0 -308 -3 -311 -8 -2 -4 -10 -4 -16 0 -6 4
-53 7 -104 7 -60 1 -96 5 -105 14 -6 6 -8 12 -2 12 9 0 10 109 1 133 -3 8 -1
20 3 27 5 7 4 24 -1 37 -5 12 -5 23 -1 23 7 0 8 45 2 60 -1 3 -1 10 0 15 5 19
0 146 -5 156 -4 5 -2 9 2 9 10 0 10 47 0 56 -3 4 -2 15 4 25 6 13 6 19 0 19
-7 0 -7 9 -1 25 6 15 6 26 -1 30 -6 4 -6 13 0 23 5 9 5 26 0 39 -5 13 -5 23
-1 23 7 0 8 45 2 60 -1 3 -1 10 0 15 5 24 2 164 -4 174 -4 6 -4 11 1 11 4 0 7
30 5 67 -3 76 -3 77 0 118 l3 30 84 3 c60 2 87 -1 93 -10 5 -9 8 -10 8 -1 0 6
13 11 30 11 17 -1 33 2 37 5 3 4 11 3 17 -1 6 -4 16 -7 21 -7z"/>
<path d="M26063 13146 c-11 -17 -9 -196 2 -196 7 0 7 -3 0 -8 -12 -8 -14 -82
-2 -82 5 0 5 -6 0 -12 -8 -15 -9 -99 0 -122 4 -9 3 -16 -1 -16 -4 0 -7 -20 -7
-45 0 -25 4 -45 8 -45 5 0 5 -6 1 -12 -9 -15 -8 -193 1 -208 3 -5 2 -10 -2
-10 -5 0 -8 -20 -8 -45 0 -25 4 -45 8 -45 5 0 5 -5 1 -12 -12 -19 -11 -298 1
-298 7 0 7 -3 0 -8 -12 -8 -14 -82 -2 -82 5 0 5 -5 1 -12 -9 -14 -8 -273 1
-287 3 -6 2 -11 -2 -11 -5 0 -8 -20 -8 -45 0 -25 4 -45 8 -45 5 0 5 -5 1 -11
-11 -19 -10 -459 1 -459 7 0 7 -3 0 -8 -12 -8 -14 -82 -2 -82 5 0 5 -6 0 -12
-8 -15 -9 -99 0 -122 4 -9 3 -16 -1 -16 -4 0 -7 -20 -7 -45 0 -25 4 -45 8 -45
5 0 5 -6 1 -12 -9 -15 -8 -193 1 -208 3 -5 2 -10 -2 -10 -5 0 -8 -20 -8 -45 0
-25 4 -45 8 -45 5 0 5 -5 1 -12 -12 -19 -11 -298 1 -298 7 0 7 -3 0 -8 -12 -8
-14 -82 -2 -82 5 0 5 -5 1 -12 -9 -14 -8 -273 1 -287 3 -6 2 -11 -2 -11 -5 0
-8 -20 -8 -45 0 -25 4 -45 8 -45 5 0 5 -5 1 -11 -11 -19 -10 -459 1 -459 7 0
7 -3 0 -8 -12 -9 -13 -82 -1 -82 5 0 4 -6 -2 -12 -9 -12 -8 -47 2 -75 5 -13
23 -12 45 1 9 6 12 5 7 -2 -3 -6 -2 -13 4 -17 5 -3 10 -1 10 4 0 7 19 9 50 7
31 -3 50 0 50 6 0 7 4 7 13 0 20 -17 23 -17 40 -4 9 8 18 9 21 3 4 -5 18 -8
31 -5 16 3 25 0 25 -8 0 -10 2 -10 8 -1 5 8 25 11 55 9 32 -3 47 -1 47 7 0 7
4 6 10 -3 9 -13 11 -13 20 0 7 11 10 11 10 2 0 -7 4 -10 10 -7 5 3 19 1 31 -6
19 -9 21 -9 16 4 -5 13 -1 14 24 7 16 -5 31 -10 33 -12 1 -2 10 3 19 10 8 7
18 9 20 5 6 -10 88 -10 104 0 6 4 14 3 17 -2 4 -5 18 -8 31 -5 16 3 25 0 25
-8 0 -9 3 -10 8 -2 5 8 109 11 347 10 221 -1 345 2 354 9 11 7 13 7 8 -2 -4
-6 -3 -14 3 -18 5 -3 10 -1 10 4 0 7 19 9 50 7 31 -3 50 0 50 6 0 6 7 5 17 -3
20 -17 17 -17 36 -1 9 8 18 9 21 3 4 -5 18 -8 31 -5 16 3 25 0 25 -8 0 -10 2
-10 8 -1 5 8 25 11 55 9 32 -3 47 -1 47 7 0 7 4 6 10 -3 9 -13 11 -13 20 0 7
11 10 11 10 2 0 -7 4 -10 10 -7 5 3 19 1 31 -6 19 -9 21 -9 16 4 -5 13 -1 14
24 7 16 -5 31 -10 33 -12 1 -2 10 3 19 10 8 7 18 9 20 5 6 -10 88 -10 104 0 6
4 14 3 17 -2 4 -5 18 -8 31 -5 16 3 25 0 25 -8 0 -10 2 -10 8 -1 5 8 25 11 55
9 32 -3 47 -1 47 7 0 7 4 6 10 -3 9 -13 11 -13 20 0 7 11 10 11 10 2 0 -7 4
-10 10 -7 5 3 19 1 31 -6 19 -10 21 -9 16 4 -4 10 -1 14 6 12 30 -11 67 -13
73 -4 3 5 11 6 17 2 16 -10 97 -10 104 -1 2 5 10 5 16 1 6 -4 26 -8 44 -9 l32
-1 0 393 c1 306 -2 394 -12 394 -6 0 -423 1 -925 1 l-913 0 2 80 c1 44 0 82
-3 85 -3 3 -2 21 2 40 5 23 4 34 -3 34 -7 0 -8 3 -1 10 6 6 7 35 4 70 -3 34
-2 61 4 63 5 2 5 10 -1 22 -6 11 -7 30 -3 47 5 17 5 28 -1 28 -6 0 -7 5 -4 11
8 12 10 148 2 155 -2 3 -1 21 3 40 5 23 4 34 -3 34 -7 0 -8 3 -1 10 6 6 7 35
4 70 -3 34 -2 61 4 63 5 2 5 10 -1 22 -6 11 -7 30 -3 47 6 19 5 28 -3 28 -8 0
-8 3 0 11 8 8 8 20 3 35 -7 17 -6 24 3 24 8 0 7 4 -3 10 -8 5 -10 10 -4 10 6
0 10 12 8 28 -5 47 -7 172 -3 176 2 3 2 39 -1 81 -3 42 -3 78 0 80 3 2 3 38 0
80 -3 42 -3 78 0 80 3 2 3 38 0 80 -3 42 -3 78 0 80 3 2 3 38 0 80 -3 42 -3
78 0 80 3 2 3 38 0 80 -3 42 -3 78 0 80 3 2 3 38 0 80 -3 42 -3 78 0 80 3 2 3
38 0 80 -3 42 -3 78 -1 80 8 9 5 105 -3 105 -6 0 -6 4 0 10 6 6 7 35 4 70 -3
34 -2 61 4 63 5 2 5 10 -1 22 -6 11 -7 30 -3 47 5 17 5 28 -1 28 -6 0 -7 5 -4
11 8 12 10 148 2 155 -2 3 -1 21 3 40 5 23 4 34 -3 34 -7 0 -8 3 -1 10 6 6 7
35 4 70 -3 34 -2 61 4 63 5 2 5 10 -1 22 -6 11 -7 30 -3 47 6 19 5 28 -3 28
-8 0 -8 3 0 11 8 8 8 20 3 35 -7 17 -6 24 3 24 8 0 7 4 -3 10 -8 5 -10 10 -4
10 6 0 10 10 8 23 -1 12 -3 47 -3 77 l-1 55 -431 0 c-261 0 -433 -3 -436 -9z"/>
</g>
</svg>
